<mxfile host="app.diagrams.net" agent="Mozilla/5.0 (Macintosh; Intel Mac OS X 10_15_7) AppleWebKit/537.36 (KHTML, like Gecko) Chrome/132.0.0.0 Safari/537.36" version="26.1.0">
  <diagram id="C5RBs43oDa-KdzZeNtuy" name="Page-1">
    <mxGraphModel dx="1093" dy="648" grid="1" gridSize="10" guides="1" tooltips="1" connect="1" arrows="1" fold="1" page="1" pageScale="1" pageWidth="827" pageHeight="1169" math="0" shadow="0">
      <root>
        <mxCell id="WIyWlLk6GJQsqaUBKTNV-0" />
        <mxCell id="WIyWlLk6GJQsqaUBKTNV-1" parent="WIyWlLk6GJQsqaUBKTNV-0" />
        <mxCell id="Fvf0qzC7fpE67HuZ9lT4-0" value="" style="rounded=0;html=1;jettySize=auto;orthogonalLoop=1;fontSize=11;endArrow=block;endFill=0;endSize=8;strokeWidth=1;shadow=0;labelBackgroundColor=none;edgeStyle=orthogonalEdgeStyle;" edge="1" parent="WIyWlLk6GJQsqaUBKTNV-1">
          <mxGeometry x="0.3357" y="20" relative="1" as="geometry">
            <mxPoint as="offset" />
            <mxPoint x="320" y="370" as="sourcePoint" />
            <mxPoint x="610" y="370" as="targetPoint" />
          </mxGeometry>
        </mxCell>
        <mxCell id="Fvf0qzC7fpE67HuZ9lT4-1" value="" style="shape=note;whiteSpace=wrap;html=1;backgroundOutline=1;darkOpacity=0.05;" vertex="1" parent="WIyWlLk6GJQsqaUBKTNV-1">
          <mxGeometry x="230" y="280" width="300" height="180" as="geometry" />
        </mxCell>
        <mxCell id="Fvf0qzC7fpE67HuZ9lT4-9" value="" style="outlineConnect=0;dashed=0;verticalLabelPosition=bottom;verticalAlign=top;align=center;html=1;shape=mxgraph.aws3.ec2;fillColor=#F58534;gradientColor=none;" vertex="1" parent="WIyWlLk6GJQsqaUBKTNV-1">
          <mxGeometry x="600" y="250" width="38.25" height="40" as="geometry" />
        </mxCell>
        <mxCell id="Fvf0qzC7fpE67HuZ9lT4-10" value="" style="shape=note;whiteSpace=wrap;html=1;backgroundOutline=1;darkOpacity=0.05;" vertex="1" parent="WIyWlLk6GJQsqaUBKTNV-1">
          <mxGeometry x="230" y="60" width="350" height="180" as="geometry" />
        </mxCell>
        <mxCell id="Fvf0qzC7fpE67HuZ9lT4-17" value="" style="endArrow=classic;html=1;rounded=0;entryX=0;entryY=0.5;entryDx=0;entryDy=0;entryPerimeter=0;" edge="1" parent="WIyWlLk6GJQsqaUBKTNV-1" source="Fvf0qzC7fpE67HuZ9lT4-19" target="Fvf0qzC7fpE67HuZ9lT4-10">
          <mxGeometry width="50" height="50" relative="1" as="geometry">
            <mxPoint x="170" y="132.6078260869565" as="sourcePoint" />
            <mxPoint x="440" y="230" as="targetPoint" />
          </mxGeometry>
        </mxCell>
        <mxCell id="Fvf0qzC7fpE67HuZ9lT4-18" value="API 요청" style="text;html=1;align=center;verticalAlign=middle;resizable=0;points=[];autosize=1;strokeColor=none;fillColor=none;" vertex="1" parent="WIyWlLk6GJQsqaUBKTNV-1">
          <mxGeometry x="120" y="340" width="70" height="30" as="geometry" />
        </mxCell>
        <mxCell id="Fvf0qzC7fpE67HuZ9lT4-19" value="" style="sketch=0;outlineConnect=0;fontColor=#232F3E;gradientColor=none;fillColor=#232F3D;strokeColor=none;dashed=0;verticalLabelPosition=bottom;verticalAlign=top;align=center;html=1;fontSize=12;fontStyle=0;aspect=fixed;pointerEvents=1;shape=mxgraph.aws4.client;" vertex="1" parent="WIyWlLk6GJQsqaUBKTNV-1">
          <mxGeometry x="10" y="317" width="78" height="76" as="geometry" />
        </mxCell>
        <mxCell id="Fvf0qzC7fpE67HuZ9lT4-21" value="" style="endArrow=classic;html=1;rounded=1;curved=0;exitX=0.901;exitY=0.724;exitDx=0;exitDy=0;exitPerimeter=0;" edge="1" parent="WIyWlLk6GJQsqaUBKTNV-1" source="Fvf0qzC7fpE67HuZ9lT4-19" target="Fvf0qzC7fpE67HuZ9lT4-1">
          <mxGeometry width="50" height="50" relative="1" as="geometry">
            <mxPoint x="120" y="370" as="sourcePoint" />
            <mxPoint x="440" y="230" as="targetPoint" />
          </mxGeometry>
        </mxCell>
        <mxCell id="Fvf0qzC7fpE67HuZ9lT4-22" value="www.jnumaps.com/api..&lt;div&gt;&lt;br&gt;&lt;/div&gt;" style="text;html=1;align=center;verticalAlign=middle;resizable=0;points=[];autosize=1;strokeColor=none;fillColor=none;" vertex="1" parent="WIyWlLk6GJQsqaUBKTNV-1">
          <mxGeometry x="85" y="371.5" width="150" height="40" as="geometry" />
        </mxCell>
        <mxCell id="Fvf0qzC7fpE67HuZ9lT4-23" value="" style="shape=image;html=1;verticalAlign=top;verticalLabelPosition=bottom;labelBackgroundColor=#ffffff;imageAspect=0;aspect=fixed;image=https://cdn0.iconfinder.com/data/icons/long-shadow-web-icons/512/nodejs-128.png" vertex="1" parent="WIyWlLk6GJQsqaUBKTNV-1">
          <mxGeometry x="240" y="345" width="50" height="50" as="geometry" />
        </mxCell>
        <mxCell id="Fvf0qzC7fpE67HuZ9lT4-24" value="" style="shape=image;html=1;verticalAlign=top;verticalLabelPosition=bottom;labelBackgroundColor=#ffffff;imageAspect=0;aspect=fixed;image=https://cdn0.iconfinder.com/data/icons/long-shadow-web-icons/512/nodejs-128.png" vertex="1" parent="WIyWlLk6GJQsqaUBKTNV-1">
          <mxGeometry x="240" y="125" width="50" height="50" as="geometry" />
        </mxCell>
        <mxCell id="Fvf0qzC7fpE67HuZ9lT4-26" value="" style="image;aspect=fixed;html=1;points=[];align=center;fontSize=12;image=img/lib/azure2/general/Files.svg;" vertex="1" parent="WIyWlLk6GJQsqaUBKTNV-1">
          <mxGeometry x="391" y="70" width="45.71" height="50" as="geometry" />
        </mxCell>
        <mxCell id="Fvf0qzC7fpE67HuZ9lT4-27" value="" style="image;aspect=fixed;html=1;points=[];align=center;fontSize=12;image=img/lib/azure2/general/Files.svg;" vertex="1" parent="WIyWlLk6GJQsqaUBKTNV-1">
          <mxGeometry x="391" y="290" width="45.71" height="50" as="geometry" />
        </mxCell>
        <mxCell id="Fvf0qzC7fpE67HuZ9lT4-33" value="" style="shape=image;verticalLabelPosition=bottom;labelBackgroundColor=default;verticalAlign=top;aspect=fixed;imageAspect=0;image=https://miro.medium.com/v2/resize:fit:900/1*ZIWWlLt8O9w3-spKcqI4mA.png;" vertex="1" parent="WIyWlLk6GJQsqaUBKTNV-1">
          <mxGeometry x="230.88" y="120" width="83.87" height="55.91" as="geometry" />
        </mxCell>
        <mxCell id="Fvf0qzC7fpE67HuZ9lT4-34" value="" style="shape=image;verticalLabelPosition=bottom;labelBackgroundColor=default;verticalAlign=top;aspect=fixed;imageAspect=0;image=https://upload.wikimedia.org/wikipedia/commons/thumb/b/b2/Database-mysql.svg/424px-Database-mysql.svg.png;" vertex="1" parent="WIyWlLk6GJQsqaUBKTNV-1">
          <mxGeometry x="610" y="259.99999999999994" width="164" height="232.07" as="geometry" />
        </mxCell>
        <mxCell id="Fvf0qzC7fpE67HuZ9lT4-35" value="" style="outlineConnect=0;dashed=0;verticalLabelPosition=bottom;verticalAlign=top;align=center;html=1;shape=mxgraph.aws3.ec2;fillColor=#F58534;gradientColor=none;" vertex="1" parent="WIyWlLk6GJQsqaUBKTNV-1">
          <mxGeometry x="230" y="30" width="38.25" height="40" as="geometry" />
        </mxCell>
        <mxCell id="Fvf0qzC7fpE67HuZ9lT4-36" value="" style="outlineConnect=0;dashed=0;verticalLabelPosition=bottom;verticalAlign=top;align=center;html=1;shape=mxgraph.aws3.ec2;fillColor=#F58534;gradientColor=none;" vertex="1" parent="WIyWlLk6GJQsqaUBKTNV-1">
          <mxGeometry x="230" y="253.97" width="38.25" height="40" as="geometry" />
        </mxCell>
        <mxCell id="Fvf0qzC7fpE67HuZ9lT4-37" value="" style="shape=image;verticalLabelPosition=bottom;labelBackgroundColor=default;verticalAlign=top;aspect=fixed;imageAspect=0;image=data:image/png,iVBORw0KGgoAAAANSUhEUgAAAMYAAADkCAYAAADD/1tgAAAMTWlDQ1BJQ0MgUHJvZmlsZQAASImVVwdYU1cbPndkQggQiICMsJcgIiOAjBBW2BtBVEISIIwYE4KKGylWsG4RwVHRKkNxVUCKC7VqpSjuXRyoKLVYi1v5Twigpf94/u95zr3vfc933vN93z13HADoXXypNBfVBCBPki+LDfZnTU5OYZF6AAKMABPYAyO+QC7lREeHA2jD57/b62vQG9plB6XWP/v/q2kJRXIBAEg0xOlCuSAP4h8BwFsFUlk+AEQp5M1n5UuVeB3EOjIYIMQ1Spypwq1KnK7CFwd94mO5ED8CgKzO58syAdDogzyrQJAJdegwW+AkEYolEPtB7JOXN0MI8SKIbaAPnJOu1Genf6WT+TfN9BFNPj9zBKtyGTRygFguzeXP+T/L8b8tL1cxPIc1bOpZspBYZc6wbo9yZoQpsTrEbyXpkVEQawOA4mLhoL8SM7MUIQkqf9RGIOfCmsH7DNBJ8tw43hAfK+QHhEFsCHGGJDcyfMinKEMcpPSB9UMrxPm8eIj1IK4RyQPjhnyOy2bEDs97LUPG5QzxT/mywRiU+p8VOQkclT6mnSXiDeljjoVZ8UkQUyEOKBAnRkKsAXGkPCcubMgntTCLGznsI1PEKnOxgFgmkgT7q/Sx8gxZUOyQf12efDh37HiWmBc5hC/lZ8WHqGqFPRLwB+OHuWB9IgknYVhHJJ8cPpyLUBQQqModJ4skCXEqHteT5vvHqsbidtLc6CF/3F+UG6zkzSCOlxfEDY8tyIeLU6WPl0jzo+NVceKV2fzQaFU8+D4QDrggALCAArZ0MANkA3FHb1MvvFL1BAE+kIFMIAIOQ8zwiKTBHgk8xoFC8DtEIiAfGec/2CsCBZD/NIpVcuIRTnV0ABlDfUqVHPAY4jwQBnLhtWJQSTISQSJ4BBnxPyLiwyaAOeTCpuz/9/ww+4XhQCZ8iFEMz8iiD3sSA4kBxBBiENEWN8B9cC88HB79YHPG2bjHcB5f/AmPCZ2EB4SrhC7CzeniItmoKCNAF9QPGqpP+tf1wa2gpivuj3tDdaiMM3ED4IC7wHk4uC+c2RWy3KG4lVVhjdL+WwZf3aEhP4oTBaWMofhRbEaP1LDTcB1RUdb66/qoYk0fqTd3pGf0/Nyvqi+E57DRnti32EHsDHYCO4e1Yk2AhR3DmrF27IgSj6y4R4Mrbni22MF4cqDO6DXz5c4qKyl3qnfqcfqo6ssXzc5XPozcGdI5MnFmVj6LA78YIhZPInAcx3J2cnYFQPn9Ub3eXsUMflcQZvsXbslvAHgfGxgY+OkLF3oMgP3u8JVw+Atnw4afFjUAzh4WKGQFKg5XHgjwzUGHT58+MAbmwAbm4wzcgBfwA4EgFESBeJAMpsHos+A6l4FZYB5YDEpAGVgF1oNKsBVsBzVgDzgAmkArOAF+BufBRXAV3Iarpxs8B33gNfiAIAgJoSEMRB8xQSwRe8QZYSM+SCASjsQiyUgakolIEAUyD1mClCFrkEpkG1KL7EcOIyeQc0gnchO5j/QgfyLvUQxVR3VQI9QKHY+yUQ4ahsajU9FMdCZaiBajK9AKtBrdjTaiJ9Dz6FW0C32O9mMAU8OYmCnmgLExLhaFpWAZmAxbgJVi5Vg11oC1wPt8GevCerF3OBFn4CzcAa7gEDwBF+Az8QX4crwSr8Eb8VP4Zfw+3od/JtAIhgR7gieBR5hMyCTMIpQQygk7CYcIp+Gz1E14TSQSmURrojt8FpOJ2cS5xOXEzcS9xOPETuJDYj+JRNIn2ZO8SVEkPimfVELaSNpNOka6ROomvSWrkU3IzuQgcgpZQi4il5PryEfJl8hPyB8omhRLiicliiKkzKGspOygtFAuULopH6haVGuqNzWemk1dTK2gNlBPU+9QX6mpqZmpeajFqInVFqlVqO1TO6t2X+2dura6nTpXPVVdob5CfZf6cfWb6q9oNJoVzY+WQsunraDV0k7S7tHeajA0HDV4GkKNhRpVGo0alzRe0Cl0SzqHPo1eSC+nH6RfoPdqUjStNLmafM0FmlWahzWva/ZrMbQmaEVp5Wkt16rTOqf1VJukbaUdqC3ULtbern1S+yEDY5gzuAwBYwljB+M0o1uHqGOtw9PJ1inT2aPTodOnq63ropuoO1u3SveIbhcTY1oxecxc5krmAeY15vsxRmM4Y0Rjlo1pGHNpzBu9sXp+eiK9Ur29elf13uuz9AP1c/RX6zfp3zXADewMYgxmGWwxOG3QO1ZnrNdYwdjSsQfG3jJEDe0MYw3nGm43bDfsNzI2CjaSGm00OmnUa8w09jPONl5nfNS4x4Rh4mMiNllncszkGUuXxWHlsipYp1h9poamIaYK022mHaYfzKzNEsyKzPaa3TWnmrPNM8zXmbeZ91mYWERYzLOot7hlSbFkW2ZZbrA8Y/nGytoqyWqpVZPVU2s9a551oXW99R0bmo2vzUybapsrtkRbtm2O7Wbbi3aonatdll2V3QV71N7NXmy/2b5zHGGcxzjJuOpx1x3UHTgOBQ71DvcdmY7hjkWOTY4vxluMTxm/evyZ8Z+dXJ1ynXY43Z6gPSF0QtGElgl/Ots5C5yrnK9MpE0MmrhwYvPEly72LiKXLS43XBmuEa5LXdtcP7m5u8ncGtx63C3c09w3uV9n67Cj2cvZZz0IHv4eCz1aPd55unnmex7w/MPLwSvHq87r6STrSaJJOyY99Dbz5ntv8+7yYfmk+Xzv0+Vr6sv3rfZ94GfuJ/Tb6feEY8vJ5uzmvPB38pf5H/J/w/XkzuceD8ACggNKAzoCtQMTAisD7wWZBWUG1Qf1BbsGzw0+HkIICQtZHXKdZ8QT8Gp5faHuofNDT4Wph8WFVYY9CLcLl4W3RKARoRFrI+5EWkZKIpuiQBQvam3U3Wjr6JnRP8UQY6JjqmIex06InRd7Jo4RNz2uLu51vH/8yvjbCTYJioS2RHpiamJt4pukgKQ1SV2Tx0+eP/l8skGyOLk5hZSSmLIzpX9K4JT1U7pTXVNLUq9NtZ46e+q5aQbTcqcdmU6fzp9+MI2QlpRWl/aRH8Wv5ven89I3pfcJuIINgudCP+E6YY/IW7RG9CTDO2NNxtNM78y1mT1ZvlnlWb1irrhS/DI7JHtr9pucqJxdOQO5Sbl788h5aXmHJdqSHMmpGcYzZs/olNpLS6RdMz1nrp/ZJwuT7ZQj8qny5nwd+KPfrrBRfKO4X+BTUFXwdlbirIOztWZLZrfPsZuzbM6TwqDCH+bicwVz2+aZzls87/58zvxtC5AF6QvaFpovLF7YvSh4Uc1i6uKcxb8WORWtKfprSdKSlmKj4kXFD78J/qa+RKNEVnJ9qdfSrd/i34q/7Vg2cdnGZZ9LhaW/lDmVlZd9XC5Y/st3E76r+G5gRcaKjpVuK7esIq6SrLq22nd1zRqtNYVrHq6NWNu4jrWudN1f66evP1fuUr51A3WDYkNXRXhF80aLjas2fqzMqrxa5V+1d5PhpmWb3mwWbr60xW9Lw1ajrWVb338v/v7GtuBtjdVW1eXbidsLtj/ekbjjzA/sH2p3Guws2/lpl2RXV01szala99raOsO6lfVovaK+Z3fq7ot7AvY0Nzg0bNvL3Fu2D+xT7Hu2P23/tQNhB9oOsg82/Gj546ZDjEOljUjjnMa+pqymrubk5s7DoYfbWrxaDv3k+NOuVtPWqiO6R1YepR4tPjpwrPBY/3Hp8d4TmScetk1vu31y8skrp2JOdZwOO33256CfT57hnDl21vts6znPc4d/Yf/SdN7tfGO7a/uhX11/PdTh1tF4wf1C80WPiy2dkzqPXvK9dOJywOWfr/CunL8aebXzWsK1G9dTr3fdEN54ejP35stbBbc+3F50h3Cn9K7m3fJ7hveqf7P9bW+XW9eR+wH32x/EPbj9UPDw+SP5o4/dxY9pj8ufmDypfer8tLUnqOfisynPup9Ln3/oLfld6/dNL2xe/PiH3x/tfZP7ul/KXg78ufyV/qtdf7n81dYf3X/vdd7rD29K3+q/rXnHfnfmfdL7Jx9mfSR9rPhk+6nlc9jnOwN5AwNSvow/+CuAAeXWJgOAP3cBQEsGgAH3jdQpqv3hoCGqPe0gAv8Jq/aQg+YGQAP8p4/phX831wHYtwMAK6hPTwUgmgZAvAdAJ04cacN7ucF9p9KIcG/wfdyn9Lx08G9MtSf9Ku7RZ6BUdQGjz/8CTVSDM2daVRUAAAA4ZVhJZk1NACoAAAAIAAGHaQAEAAAAAQAAABoAAAAAAAKgAgAEAAAAAQAAAMagAwAEAAAAAQAAAOQAAAAA/YYlPAAAKk9JREFUeAHt3deSJLfVLeCk9977phl6csihKAV1IRehG13pkc5LSQrpSjaCVIiiEb0deu+9//tDcM1Jlro1risT1bURgU4PoHauhbU3gKo+5rvNNFQqC5QFfmCBY39wVAdlgbJAs0ARo4BQFtjCAkWMLYxSp8oCx5cJygLffvvt8PXXXw+vvfba8MUXXwznnnvucPzxxw/HHXdcy++///7wwQcfDF9++eUgJD322GOHU045pd13xhlnDK+++urw+eefDyeccMJw8cUXDyeffPKgTM+7dxVTEWMV39oOthmAP/nkk+Htt98eHn/88eHjjz8errzyygZuwD7mmGOG119/fXjnnXeGk046qQFe9eecc04jDxK88MILw3vvvdeu55pnkUdCGs8im/Iy3tMzeYoY7dWt7x8KAdh//etfh5dffrmB+MknnxxOO+201tt/9NFHg+z4V7/6VSOGY4SgEEBOTd544422/+mnnw4XXXRRU47zzz9/+Oyzz4Znn322kY0SIQxCfPPNN02BTj311EYghOkpFTF6ehsztYWLRDEAXO8etwhY7X/11VcDwD/00EOtx3c/Mj399NONIC+++GJTGoB/8803h3fffbcB3/bEE08czjrrrOGtt95q1ygHgiCE5NkPP/ywEeb0009v97rffXO6YUWMmcDYS7XADPh6dnFG8mL7uFgPPPDAgbhhHG8APxBTD0SiQmIPx0hw3XXXNSIhH3fq6quvbqpCcZ577rlGDvdTJS7aVVdddYA82oOglCau3WLblnFcxFiGVVeoTL01wIoRgH27BOTcH0SSHCdHYQAdiBFDeWeeeWZTD24aNZKd56qdd955w4UXXtjUAqmuueaa4amnnmrku/baa4ebb7552NjYaM8jExVRnjqmSEWMKazccR1Amd4e0PXK3BgqIksUwXnEQQz3JYUcenb7rgvmxSvA7JxRLWUhEOWRnUNISgHwzz//fHO31IFY7rcv6KdmAvmbbrppOPvss1P1UrdFjKWat//CBdHACcQAq8fnzgiwAdwxF0dPTV0A37mxeviUzjsnATbQKyNECYFcD+mUx21S9jPPPNMIqh2I6DntEbMoS51Gy4oYLFhp6RYAeuD82c9+1nptvfRll13WhmgFz0BLLYAeoAFXBlg9ecgQRQBgRDOfIeBGDqSQXJPHJAF6BEFCSZlIQV0E4wJ8x8qznSqVYkxl6U7r4b/z92+99dbm8yOGgFnvrMfO3ANXyTGwIhNAA3EIgUTOIcoll1zS3B4xhTkQw7WADtjKk5HDOZnCuOac5xHKKJj7lGlLRdSvffaXnYoYy7bwCpRv6HRjM9CVDyUBMYAiBVAjxUsvvTTs37+/HV9xxRXDvn37GoCNOiEQgCMBBUIucY04A+GU59hWpiBykmueRzT1FTFimdp2ZQFABU49uUBdYEx1rr/++gZsx9wtbpMRpt/+9rdtSJb7xWUSJ8iUxzmTg0arqITM/YqL5oNHSaY0QinGlNbeRXUhhywhCZAjxzhRFcl1RJGohn0BvuwZ8QMymOwzcYgci8SgJNSCSk2RihhTWHmN6gBgPbxEHRJjOI9I3LbMagO/ZSOXX355u3bfffc1BeFuxcUamw6pQrbx+WXsFzGWYdU1LBMZ9ObiDL0/EoglJFuTelwm9yDCnj172ugXpfFsYgouFvJwsQThCEVxjHRdcMEFbc5jCvMWMaaw8i6sI8qgB7fs3IgRV8d8hHMAbukHgiT4fuWVVw70+K4rw1AwdRCIy1SGojgvRqEeJgC5W54x7zJFKmJMYeVdVoceHphlI0V//vOfm1IggGMAvuGGG9ool3sQB+gRR7JPPWwF6lwqo05iDDPgiMBtUo/rlo4gWUazpjBnEWMKK++iOrg4lmlwbYxKJZjWywM7IlAMo0z33ntvIwOl4F5lgs/WswjEhUKKKIVyBd/KoBruMQF54403tgB/KlMWMaay9ArXA7SAqsfmMgFyZsMRgBIAut6de+TYPflGIKDr/ZMogqBbLEE1lGnrHnVkuNZ1cyIWGJqNn8qN0s4iRt5Wbbe1QL7BZ54CeJECESjEo48+2ib4xBIAbJabClCSpDEp7JtVV5ZnBN+yshAK+JWPYEhiRt6ydfdQmqlSEWMqS69YPYDJLQJWPTgF0PNzi8QMXB4E4FYBsOQ48w8IoMeXlOHY6JLlJnp/WyNUMjUye57nHQu6PS97bkpSaHMRgxUqNQsANTIAqyCaewOsiCC2AHA9u2HU8VyDnj+jT57V48vA77xyEMlkHlJsbC49yYQfsqlLPdwyBPKM2MK93C51TZ2KGFNbvOP69NQAqvd+5JFH2srWEAJp9NohDwJJgIws2XcsEAdoLhOXi8rcddddbaTKAkMKAPzKMgqV75pTKee5U9yyu+++u81duH/qVMSY2uKd1afHlgXAhkupA7cpo0+GYAE2PbmtPHZtXHcM1LaUQVwgU4bbb7+9zUNQEK4RVeGCIYUYxdJypEwZ7jFEi1gC+nFdU5mviDGVpTuqR28vODbaxC2iENwYgbPenWujNwf4cQopnBuDlSpQCMDnQl166aVt2bkZbucWR5OQjcqYDTchaPQq5VEHpPBLI9ZSzZWKGHNZfqZ6gVswTR0ee+yxNjFHIfTYst48CrHYRM8mRSUQgevkO9q//OUvGzH0+IiCMK4nhVhiDmSMO4YUyqM4nr3llltafJHn5tgWMeaw+sR1BtDUgfuit9ZL8+0pBVdqkQxAKgM2ACsDASzNMAeBXIJiQbVzYgJKkWeQYjGpA/kE8cqkJMqQ1aMcy9QN5VKaOdN/t37O1lTdO2YBQOYOJX4APK6SFawIwl0axw+LFWd+wXPiD0AGXL35xuaokhiB2yOeMAmHIO7dLmkP903dMmIp0zNUwgJBs9t+8IALJraYMxUx5rT+EuvWOxthMrrk96C4NsDMpwdIpAFWeaskcLY+Se++//tv5nGVnOP7K4MLRBkyyrRVOTmnPQL6v/zlL40Y4hsJWcQTv/jFLw78ntQco1BpZ7ZFjFhiF2zFB+IFCXD9cuATTzzR4gluC5BTCQmo49PrsfX4ASsSWRaOBO6hCIjExTHKxKU61KQdwI9cRp+4b9TKOaRUPtVBjq0C9UOtZ6fvK2LstEUnLg+4EALQMrKkCYD897//vcUTemtgHCeA1DMjATcGMLk3XJtMwplzMKsdFwmZDjdpm7oF+n5QLS4ckrrGZVK+7RwTedt9niLGdpZZkfOCWcH0ww8/3NwmIz7cGyCzjxRbJdeBXu+PJAiWn8bUg+u9Q4ojIUTqpBhilATd2Y8rJ5Yxy5125Lm5t0WMud/AEdSvpwUwMQNS+IUOsYMtAOqBkUOvLAE24IkNjChRFj30xmYQnd4aETJ34BrXa6uRpcNprsBfG82NiC/EPNqErMrPaBYXTZ1HQ8DDadeh3FvEOBQrzXyP3lzPC/RABXAZejXSxHfPkKumugd5JGCjDnplQ6pGffzgADUwI80FQwDXuVUAe7RJ/RSBYplJF19YocuN8lmQUX3qN8olhjmcuOVo23cozxcxDsVKM98jYAYs/9jFxBjg5Rc2AJlSIMZWyXUgNATKRZJuu+225ipRD2UhD3IcrUKkfu2lFDKlQOIE2+4RwCODOQtt6M2N0sYiBit0lPSost5Wr8vFiKv0n//850CvG9fHvXGZMq+ADFSCAlAGI04ACJD2Ez8sa1hUEO+H1oyQZWUuYsRVolx79+5tE4KJYzp6Ba0pRYyO3ojem8sE6NwPW4BGiAy7uo4MYgvnkgTQAlmTZICPAIJpwKME3Bc98064Sqlzq622iSXEPNQCOSgHUiT2sXzkRz/6UWtPyLJVWXOeK2LMaf1R3UghKOb/W1wHVHpZPT9XJAoCeEn2AzjKktljQXTcE1vzFBLyLDNpDzJz67hT2kw9JIS0ONCPJFg1S616JYX2FjFYYYak5wd8Aal9CSn0tMb7gUsADWwJukOCDLUiE4AZ3aEW1IXvTjH0zp6jFu5fdkIEnwWJuVGIjRTaIHHjKNidd97ZCLJskh7t5y1iHK0FD/N5QJcBCYgE1PYBmWtkcR+ALSZAikvETdLrikHEEffcc09TBdepRmKHbBfLWsYxdUBo2UJFQ7QSMsvUQrBtRn0Koh7tZyxiHK0FD+N5CkAJ9KbAo2dFBL0q8OhhkSQJ0LlCFIUrYiYaKZDIPIYZamCjGO5ThmemTohutAyxqZ79JC4eBbvjjjva0nRtX4U0vRVXwSo72EbuDrDHtRCYGmXyfQi9qvVJgA/UALaYnAcsPa7RHPvUg9oYguWeIMschEhbtRvgMxo2dpOolmFiS9Kpmc+zCqmIseS3RCWA+M+bv9ZnLoIq5ItBYyKM99MkhEEck3JZ7m3+QjwBiEDWC9AE/L6jjQjaRBElhEVc7lMvbY19/9e2iPG/rHOY16gDIkQlEGL/5rArl8k2AXWC6nHxQJMRJHGDIBoBjPL4baUcAx5SjHvlcTlz7Gu7tlIFcY8JRW6efQMC+W9Nc7TtSOssYhyp5b5/Tk8v69kzTGkrGKUQlmvwu7lTCKMH5VKEPBlhMt/gHJA5x20SO0hAZlSn16TNCBtVQGzxEGJo98b3a7J6bf9W7SpibGWVwziHFFwe3zMQM3CVBNQmtQTVCIIocZXMKXA5EMUzXCNfCrKQDoGoi/gDSQAMOVYlYEUQbhOSi398ZudWpf3j117EGFvjEPeBVm9o9hkZ+NPcJmDnDnF/uEsm7MZrhBTvWSNKtu4VTHM9EEYgTU0sruOzOz9nUH2I5vjBbYiQ/IMLK3ZQxDiMF6YH1PsDttElhDAhZ5gSKfSMFACYEcM5BHLeOQpghAYhHKdnzTl+OndEXtWEFLshHbP5sv97jHA3fLIlfAYgFzPIlntzl7hKiBK3AagRgSJQDkGyYUy+trF8gSjXi0I4hxz8c/cFVNku4SNUkYdogVKMgxgKiPMLfVwnAbXh1rhJGYVKMYsjTlTAyIwA2neojS4pE4GiHD2NMOVzrPu2iLGAAD094HKD7AM6hfCdZSrhvOuLCdC5R0AO8I6pyJgUAlLuVKX+LVDEWHhHGUlCAoGztH9zDkJwbUh2O88T4AXLFMK+0RlZcC2GMLqUVa4LVdZhhxZYe2JQBbGDYVYL4LhK1vqIH6IMAm3X+f5jYgA8RZAF3YghUwxxAyJYKyTGQJhymTpkwDZNWktiADc14BYZZUIMRPBzM+KJ8epWZABuoAZwAbXgGtBNwokZrGNCDkRBDOXL7qtAehvkdX567YiRuMFEmmFWw60ALz6wuM8I0zgBNzfIPdwsiwG5R/v27WvzDhmpQggKgQghQ7bj8mp/NSywFsRIMJ2teMH/Zcg35bKcIaQQOLuXSgC7pd1cJWohgHa/+IFC2EcA+54rMqwG8A/Wyl1NjMQD3CXLL7hO5h0E04Jr8UTcKoCmJoAuUwKk4Cb5co0ZacSQbMUcYgnnzVJX2l0W2LXEiMsE+JZt/PGPf2yxA5KILwzDjnt49yEDl8moEoWwfskX98UYrlMQ1zyn/LhOuwsS9WlYYNcRA4CNIlnIRxUciwvEFEiRkSaxgyy28DVRrhAlcWxfUC0LqhEixBF0jwlVMNqdFlh5Yui5gV22L/stIz99/6c//emAz+88d0kGcscScnCV/AgZAlAN7tHG5lJp6kBdqAf3qtL6WGDliSFmED9Y0Gf+AZC5PoZfJSSQEIIa2HKj7Ov5bSXxgl+wsDXCJLhGhqhKu6n+rI0FVpIYenUBsDVLAugQI7PT3J+4TIiBDNQAYYBesGyuwvCrfd88y2w1MrgPITxXaT0tsDLEiJsE6EhBKR588MEWS1iqYVGfrSyAjlIgBJBTB6TgNv385z9vP1tjUSCVMATrmnsrlQVYoPtl5wCOFFwj6gDMOXf//fc31aAgen+EAHA9PoKYsDM5J0Zwza/gWeFqCDaLASmF+yugLkKMLdCdYqSn58YYXaIE3B4BNZeJ++QaFXDOpFxcnsQMSCBWcA+3ShZQm6jjOlEGMYTr6svzY8PU/npboDti6P0phKAY8P1zRcOuhl+RZDEBNaDbehaJgJ5S+NkZSuILQX7s2BZhxqlIMbZG7ccC3RADgM0m+4eK5h3MLfgehPVMVMFo01YJKSiE313iMgG6mMF6Judd5ypxmTICtVU5da4sMLbArMQAdj088CKFIdd///vfLY5ADipBNSQ9PXBzfwTfYgSuE3UQM5iHsKUaSGEizr3IINuvVBY4VAvMSgykoBAAjgh/+9vf2ux0gu3EGz4MUogPEMS9CAP8G5sTcUjBVTJjTTHiHmV7qMao+8oCscBsxAj4//nPf7aYgnpQAT2+3j2xgPuyaA/QxQ5GlvzETIJqgXXUJB+stmWBo7HAbMQwnKrn37+5PslM9GIKOZCBqyU7Z+GeGAI5EMKvbFCcSmWBnbTALMTgIiV+oAiLyXVkEUyLIYxGUQRqIXOpHCNJBdSL1qvjnbDALMSgAgLkANyokyUcVEHvb1jVqBQ1QBKulGUbhl8F2MgSUlQcsRMwqDIWLTALMTQC+PX+fm/J9yWQQ+8vtqAUfpjMcKu4wzlE4T6Z2S7XafE11vFOW2A2YiCB4Nmv81ELrhMiSOYdNjZHm6gKFaEayCA7rlQWWLYFZiMGFyi/tCEIB3jHVMSPGyMNgjhf7tKyYVDlL1pgtkWEVMDQrGFaP0yAHIhhPZN4gqIUIRZfVx1PZYHZiOEDIoeMHAm+fR+Cy1SkmAoCVc9WFpiVGFs1qM6VBXqwQEWyPbyFakN3FihidPdKqkE9WKCI0cNbqDZ0Z4EiRnevpBrUgwWKGD28hWpDdxYoYnT3SqpBPVigiNHDW6g2dGeBIkZ3r6Qa1IMFihg9vIVqQ3cWKGJ090qqQT1YoIjRw1uoNnRngSJGd6+kGtSDBYoYPbyFakN3FihidPdKqkE9WKCI0cNbqDZ0Z4EiRnevpBrUgwWKGD28hWpDdxYoYnT3SqpBPVigiNHDW6g2dGeBIkZ3r6Qa1IMFihg9vIVqQ3cWKGJ090qqQT1YoIjRw1uoNnRngSJGd6+kGtSDBYoYPbyFakN3FihidPdKqkE9WKCI0cNbqDZ0Z4EiRnevpBrUgwWKGD28hWpDdxYoYnT3SqpBPVigiNHDW6g2dGeBIkZ3r6Qa1IMFihg9vIVqQ3cWKGJ090qqQT1YoIjRw1uoNnRngSJGd6+kGtSDBYoYPbyFakN3FihidPdKqkE9WKCI0cNbqDZ0Z4EiRnevpBrUgwWKGD28hWpDdxYoYnT3SqpBPVigiNHDW6g2dGeBIkZ3r6Qa1IMFihg9vIVqQ3cWKGJ090qqQT1YoIjRw1uoNnRngSJGd6+kGtSDBYoYPbyFakN3FihidPdKqkE9WKCI0cNbqDZ0Z4EiRnevpBrUgwWKGD28hWpDdxYoYnT3SqpBPVigiNHDW6g2dGeBIkZ3r6Qa1IMFihg9vIVqQ3cWOH7OFn333XfDt99+O3z22WfDJ598MnzwwQfD+eefP5xzzjnDMcccM2fTqu41t8CsxPjmm2+GTz/9dHjzzTeHl19+eXj22WeHffv2Daeccspw/PHHN3Ice+yxbVtEWXOkTvzxZyUGQvzrX/8aXnjhheGtt95qyvHll18Or7322nDWWWcNZ5xxxnD22WcPF1988XDiiSdObJqqbp0tMBsxuFAffvjh8NRTTw0vvfRSc6OogvPvvPPOcPrppzdyXHrppY0glEM67rjjys1aZ8RO9NlnIYbY4quvvmpu1HvvvTd88cUXg3Py22+/3bLPf9JJJw0bGxvDDTfccMC1Ovnkk4scE4Fjnas5ZhOM301pAIrw9ddfD08//fTw8MMPD/fee28LvBEliTqccMIJ7RARrrjiikaSU089tZHk8ssvHy644IIWi1CQSmWBnbbALIrhQ4gp3njjjaYcAm1kQBjEkeJWffTRR8Ojjz7ajhHDsdiEi4Ug55577uB8BefNbPVnhywwOTGiBoJsWY8P2NLHH3/ciBJVsQ1RCJvrVObJJ59sQ7o//elPh1tvvXW46qqrDpijCHLAFLVzFBaY3JXSViB/9dVX2xCtwNs+taACrpnToCbiDXMbyCEYN4z7/vvvD4Z5uVjXXXddm/c488wzhyuvvPJAkG4U67TTTjsKs9Sj626ByRWDwfXqSADQYgUTeohx7bXXNlIgCgJQEqTgPrn3vPPOa9cpzeeff96I9frrrzc3jGtmchBhkOnCCy9sOW7aur/o+vyHZ4FZiKGJyEEFgB9JJAE3N+ndd98d9u/ff2AOAwnMZ1x22WVtaJeiUA0jWpKykAHBEO3+++8fNjZHs37zm9+0OmoOpJmp/hyGBWYjhjYCtBgjcxSOuUG33377gQk96mA4lxuVkSv3cbkSfygLeRDK8hLPIMNzzz3XziMcBUEaZKxUFjiYBWYlRhoH6El6fSSgEFk/BeSZ2KMaVAYBMopFPZDBVkY0gbrRLKriWQE6Vw1BkCpqlXprWxYYW2CW4HvcgK32ARfAs6UGyQghrrC2ivtkrVXOIcw111zTnnXtlVdeaaqCGIhw/fXXDxdddFFTHqokeB+Tcqu21Ln1tEAXirFoemAVNEu2FIOKRCGAnLIgD/eKOpgoFKRnyNc+wkiZIzGpKLD3HKIJ8CkIV0umUuorsjSzrfWfLokxfiNAKlseIkuIYpFhjrlcQG7oV9yBHIkzkEmiPplUdCxuEZNsbAbpykE87tZ4wrAIwlLrmbp0pQ72KoBcDnApgIWH3CdK8dBDDzVXi2KIMVw33ItAURHKQCWQTDncMGuy9u7dO9x0003tGqVJHQdrU13fXRboXjG2MjewjgErhtDT6/kB3lIR7hbgG5lCGomKcL0QJW6Z8/YRxr0SMilHPJJ1WuqotD4WWEliLL4eJEGCuESIYfSKSvhOBxfLEnf3ZMQKOYDdDDlSyFwtsYfvh7hvz549TZlMHConrtti/XW8+yywkq7Udq9BfKH3B3quFnAbtQJ2SmH49oknnhief/75RoSoAtJQCQRDlrhQSIMU1mPdfPPNbRRru7rr/O6ywK5QjLwSgBYzJCGHY9ssLRF0hzBZb2W0SvyBFIjlHonrhVied96WWyZQv/rqq5uCRIVSZ213hwV2FTEWX8k4FgF6vT+Ac7Eym85doigvvvhiAzqXirqETK5RGM8hyjPPPNOGipUtromLhSDqqLQ7LLCribH4isxT6O3FINwtQDeKBfzUIytykQY5JGDncmWlLwWx8lc2ky6Wsbgx3w0pcixafTWP14oYgue4WhQBMQAZwF3jbjmPFIiAMM5xvcQhZtwlqoJQCORLUwhHcazFoiKIYp6FilCWSqtngV0VfB+p+QP0/AgD5eAyZVEiohipeuSRR/6rCsRCKuQxG29JikB9Y3PikMuGiO4pgvyX6bo+sVaKsd2bAN7MpAMw1dD7IwjXSXCOPMDvmpxEUSiH56iM+7hZl1xySfvyFDWyrJ47VuSI1frfFjE235EeHeiBF9DFH3p/xOBOIQe3yz1yYhMjWfbdL9kiCRdKWdwtZSOeck06ysookjSTdfuniPH9qwFUIJaBGrgBnRtluQgF0fML3sUbZsn9MJz5D+SJkthyoTzjlxWRS1nWb3neeqwQR11FkD65UTHGNu8lQNfTUwWLFLlKRq+QwTcNgRpJBN7WaSEINUjg7RnDuVQCyZCFElnRKxaREQcRK/VlgXoj27wPoJfj9lCBuEV6fG4UwCMNNTGjbtQKocQZWf6OTLKkLIG6+RSBvuDeWizlKHsc52zTrDo9kQVKMY7A0GIOoKYGSIIMv//974cHH3ywxRhIgRwHS9yyH//4x22xIjUxmoU0SFJpXgsUMY7A/uMgmwoghtlxcYfs24XcLdcE41RF4jLFbcoSE3Me3DME8xNAvmV4yy23NLfLuVVK3E6fmz2ooPavKsnLlToC5HnZevhx4hJRAK4SJeE+ZRgXCQTqiJJ7xCZUxwSh5JpRLCRSvjLEH+qRlRtSjevtYR8hfFbtN99jX9u5hmIqedVSKcYOvjGgBg5BuMB7/+ZPAFkqouf83e9+19wrYPE9DwG71b5J4hlkkPW2CJSlJkayPANs7uspUQefG8F93scff7x1CjoDCsg9vPvuu7tr98FsWIpxMAsdxnU9OmDr4YEbCYAZeO65557mZog/uBvAZPkIImVdlrgEoJyjGsDGLUM0vbCyLT9RJoXpIWnzP/7xj+ZC+j5LRue0LSuQtT8rAHpo86G0oYhxKFY6xHuAFQAkPT5iSMDu67JcJyNXgGIky7AtF8sIFdcKQUISzwEZcnCjPCMwj6LYZr7EvXMkLpTROUtlDF+PBxwQWyeA5D6b9oqleiH0wexVxDiYhXbgOiXhZwMGJYmrBCz5dwi+py6opy5JgCdzTxDE8hIuGnfKHMidd97Ztrl/6m1cx7iP4/q1O3M9PjtCIIuOozd3cNzu7BcxYoklbwEjPWZUBRGAhCJkdMpQsMDd+YCJ4nC/LGykHJLe2PNUhUuW74Ys+WP8oHhtBHbqGJdR+0JwamK0Dkmo48bmwkoxh8/ruZ5TEWPCtxMQIYjeFrjFI0ghhgBuigBcwCQhh4wcFidKAOlZigNknuGu6JnVkZEsSuXeZSXtUpfBAe3jEnIFEUPyGcUd2icQp4bcPySx9Xyv6bj/t5l6bdxubVd6WqAGZr0tFfHLiMCOJEayAAeY9MiOoxbs4rw5D6t4DZFSE66LYB2plLPseQTt8xl8Wcu+H53QRiRJ0k5EEYj7nNppK/5aNnHThiPZlmIcidV24JmQQ4/rh6yBX+xBPfSm3BC+u94WUbhXgltAA3w9s58gdY2bRUH00IBKWfZvDp3edtttjTjKWwYIfQblArlhaUT1j33GQThTabOUdouXkMOiSu3tUTmKGO2VzfcHuPTusmQ4lgoAPrBzT5DCjLqfF42KcJ2MaAGZcwiCGJLziKFsBOOiASIXTgbGnfTxlWWUTfwQd0qsRCniEsZtRCSq4piyRBlbwzv6U8To6GWMmwJA1ETS4xrqpSgIBIhAD1zpndMrpwwk4Vr5d9H29c5m58UDG99/uzD37sSWatx4442NCNxDI2njOQ1EpYBcKgop5uA+9qgW7FHE2AlULKEMwNeb6unty+npqYmZcP46N0pvTRm4XYiil9YbUxO9NmK4LuutAZSKIBoQI+DRAhSRtRXwlW80yjZJvdrqPjGJe52zpZLa41ovqYLvXt7EFu1ABurA/QEevSwS2BeLAL1eN4sOQwLEyD6CUBOE4W4lXgFSRImroy4pJNyiOQc95VmxEsAbjUJI9cuSLRcQwbUDeWx1AAjaEzH6oehBzb7eN+jRAU8PiyiAxH3hyyMHt0oAbKLQOiyul/vHLpZ7gBXZgJNS2Odm3XHHHc3FiZJ49kiS56iGgP+BBx5o68G4dNqRjBDiJkSgWsg5bueR1LvTzxQxdtqiSywP6ABZlhAiigBgemsEEocYwuVyuR5Xyn5iEoTi6gClXlzPTY24OYCd8hDocEjiXoTznOUvBgy0l4IF/CEoYiCIgF084lnP9ZCKGD28hSNsw5gkCBGXhJIgB8AjADIYqQJI5ABAIEUcW+oiUyOqw8USIHPXKAiwAnEI4pnsb9d016mG57UHCRFU8rx9bUMKWVtDqO3KnPJ8EWNKay+xLqRAFKAz8gTkJtyQQm8NnCb/ZCCP6iCH65LYwDOCeIphhtr/DLEuyxCyOpQvx7Xb7iMhBpKpR1v8xysunkSlXFcOleMWIqH9XlIRo5c3cZTtALSAXU/NzdLTAzvwA50eGQgph/PcJ712fHwEcSxTkEwcmjAEcrFICGilrzq2S9qDEBTDCNoY9AgRdXOfeqiGepEWSVyfMxUx5rT+kuoGLj2+jBRUwzlgRgLBcFwrIHUubk6a5Lm4WO4H1rvuuqspT+KP9PrUIwri3Dg5RlhZG1IfUiGbeqlYyIxAyp+bGDVcO36Lu3AfYAGSWgAf4HFpqMPG5kSfES5gHc85LJrBdUTRq3tOGQBtScr+zYk7xJKAPwRJGeoW71AFzwK98mTlUBWKYp0Ydy/tVBZSLRIt5S57W4qxbAvPXD5gASdAAib3SswgwOZWIQtwZjQIAZDEda6WBPhxvQBWQhKAlwX0nuMKGV1SlhEu9+r5ZbPi2kC9TEyafBTLeM51o1MhlfZSKGXPlYoYc1l+hnoBVY/8k5/8pIFerAF8QGjyEImMDlmXJQgPMdJU1wNok4z+V7r1UYglIYW5CwRQBzUCes/5BmMI6ZyyqY34RdYWiYvlmrYWMZpJ6s+UFgBOwNO7I4aemyrk/xByfeS4SdrG/aE6gOua39HillEe5EAAasBFco8hX6NZgnZqAPS26nWP+5WpXuVok5Ew7XGeq0Z5omZT2qcUY0prd1RXgDoeWeLm6KnFD3p/JJC4Vnr0kMTWvbIAnRIAt+coioQYJgoBnLqoT9lAzlVynMQVUx9iIAyXDNEcK9e99qdMRYwprd15XUBp5AoIkcJQKxBboesHqgFf0tMjB9C7FwHcp9d3jTsmRgFoANfru57hYkRQlufdL9mnWghCddyLcEgiCcynTEWMKa29AnUBuoDcxF7iDqBEmscee6ypBBDLEmXwKyFIkPkRsYVnuEwUyb2WhyCLfWTY2BwRs2bKdaTxLDJSCL8DbJ8aIYp7/fDDlKmIMaW1V6AuAAdsWQJkwHUeaMfzH8ArWw8F7O6lJJ51v2PulhEnxLClJv49tNjDuizXqcdYOZTJfUugT7moDFcs9y3blEWMZVt4xcsHRPMMXBvZV1e5VtyexBmA7D5kkBAIqBMXUAPKghRGoLhIG5sq4AetfaGJckjKoEyGdgXgnpcRjUulfiSdIk1TyxSfpOpYmgUAXqwA0Fwk3yXXgyOInxnV40c9NMK+c1wh7hN3iZI4h0xcJce+I648I1H33XdfUwkEEs+YDac4ykIK7h3XroixtNdcBR+JBQBSL56hVMDOPAO3h4IAMXcpx0hBLSRqEFVBDvcDu6FexEMWSoMY3DVukzqphXKUiYxTpVKMqSy9i+oBcMDds2dPm6sQP+jdAfwPf/hDc5lcHwPZNUCnHmIMGRFCGAThajnnOZOElCSLFymWMqdKRYypLL0L6zEnAayJJZBj7969ze0SS1g2Qh2QAgEoDKDLQC8573kz41wtCoMYsvK4b1GpTDhSmmWnIsayLbyLyw+oTeBJXClLRMQNlpTIXKCoBVXw+7tmxCmA81wqKqIM56hKYhSxBYJwryiJtVUGAqYgRv1/jF0M3Dk+GqADs95fvEExEAhZjCpRmSgIRbAERaDtx62NThn69axESRCGuph4RDLK8utf/3rpH60UY+kmXq8KgFk27EoJkESiAojg2Aw5twhRqApyxC0T1EvuRTIjW84hl6XpRqamSEWMKay8QnUAJBCOk3Oynl4KaAHWPvcn15xLRgYxCIKY1xBcI4YhXgE7l8hCQaNOAvmU3Xa+r8f9ylEHN21jc/5jilTEmMLKK1IHQEuLxAg4ARwBHOvlBcqe4eZQCElckOw6JTDDLT5AAr9e4ryYgWtkC/gm+uwv1q1Ms+QmA7OOy7llpyLGsi3cefl6fEAGdO6NJDg2fwCogIwQsp7defvut45JDOFY4GyINYGy89wgoDcahQTuF3cgl3rdG9K5Tw45KQ2ycZ2MdAnalb8VcZZh4iLGMqy6QmUCKNBa0SoDqgAXmPXsZqQFwIJngTFw2ucWeU52n3ghPTpwC6C5S+6z75y6pATg6nIOUcZzFK4jhfL8Y0tLRIxGTZmKGFNau9O6AFdvbu6BEgiOAVUPDvjiA0rh2Kx0evdsAZtCIIF5BwqiTIpjG0Lk4wuqJefFGdRGolwI5Od/jERRLqt8LSKcOhUxprZ4Z/UBIvdELx0iIMM4cXm4UYkvAmz3eNZ5CRFM6lGPsUoggGy0yjXPZOTKt/vy/XD1IyR1oEpIY3JP26ZORYypLd5ZfYgBjECop08CXtl1OWRwzghRVMBxgG+fajjmcnHHlO1Z1ygDJfA8BQJ6CpPfq+I+IYFn3D9nKmLMaf0O6gZSQAT+gF2z9OzOZ2QJYMUEAB11oRQy4FMVz/vtKWDn/nCvqI8RKc9QgRBD2VEN11KW7dyk8PmLGKywxgkQkYA/v7E5R8Cd4evrxYHbcUaiEICqADIiBczcpiiKQNnwKsVAJO4VcnmOIlCRXsD/v157LQn5X9ZZk2t6egTwi4OWZQi2Bb35ETSg1osDP1AvujpRmh56+p16ZUWMnbLkipcD3Hp2asEt0uOLCbg7AC9Tieyv+Mc9aPOLGAc1Ud2wjhb4/z/us46fvj5zWWAbCxQxtjFMnV5vCxQx1vv916ffxgJFjG0MU6fX2wJFjPV+//Xpt7FAEWMbw9Tp9bZAEWO93399+m0sUMTYxjB1er0tUMRY7/dfn34bC/wfoFWNVckCrmAAAAAASUVORK5CYII=;" vertex="1" parent="WIyWlLk6GJQsqaUBKTNV-1">
          <mxGeometry x="327.75" y="340.64" width="51" height="58.73" as="geometry" />
        </mxCell>
        <mxCell id="Fvf0qzC7fpE67HuZ9lT4-38" value="" style="shape=image;verticalLabelPosition=bottom;labelBackgroundColor=default;verticalAlign=top;aspect=fixed;imageAspect=0;image=data:image/png,iVBORw0KGgoAAAANSUhEUgAAAMYAAADkCAYAAADD/1tgAAAMTWlDQ1BJQ0MgUHJvZmlsZQAASImVVwdYU1cbPndkQggQiICMsJcgIiOAjBBW2BtBVEISIIwYE4KKGylWsG4RwVHRKkNxVUCKC7VqpSjuXRyoKLVYi1v5Twigpf94/u95zr3vfc933vN93z13HADoXXypNBfVBCBPki+LDfZnTU5OYZF6AAKMABPYAyO+QC7lREeHA2jD57/b62vQG9plB6XWP/v/q2kJRXIBAEg0xOlCuSAP4h8BwFsFUlk+AEQp5M1n5UuVeB3EOjIYIMQ1Spypwq1KnK7CFwd94mO5ED8CgKzO58syAdDogzyrQJAJdegwW+AkEYolEPtB7JOXN0MI8SKIbaAPnJOu1Genf6WT+TfN9BFNPj9zBKtyGTRygFguzeXP+T/L8b8tL1cxPIc1bOpZspBYZc6wbo9yZoQpsTrEbyXpkVEQawOA4mLhoL8SM7MUIQkqf9RGIOfCmsH7DNBJ8tw43hAfK+QHhEFsCHGGJDcyfMinKEMcpPSB9UMrxPm8eIj1IK4RyQPjhnyOy2bEDs97LUPG5QzxT/mywRiU+p8VOQkclT6mnSXiDeljjoVZ8UkQUyEOKBAnRkKsAXGkPCcubMgntTCLGznsI1PEKnOxgFgmkgT7q/Sx8gxZUOyQf12efDh37HiWmBc5hC/lZ8WHqGqFPRLwB+OHuWB9IgknYVhHJJ8cPpyLUBQQqModJ4skCXEqHteT5vvHqsbidtLc6CF/3F+UG6zkzSCOlxfEDY8tyIeLU6WPl0jzo+NVceKV2fzQaFU8+D4QDrggALCAArZ0MANkA3FHb1MvvFL1BAE+kIFMIAIOQ8zwiKTBHgk8xoFC8DtEIiAfGec/2CsCBZD/NIpVcuIRTnV0ABlDfUqVHPAY4jwQBnLhtWJQSTISQSJ4BBnxPyLiwyaAOeTCpuz/9/ww+4XhQCZ8iFEMz8iiD3sSA4kBxBBiENEWN8B9cC88HB79YHPG2bjHcB5f/AmPCZ2EB4SrhC7CzeniItmoKCNAF9QPGqpP+tf1wa2gpivuj3tDdaiMM3ED4IC7wHk4uC+c2RWy3KG4lVVhjdL+WwZf3aEhP4oTBaWMofhRbEaP1LDTcB1RUdb66/qoYk0fqTd3pGf0/Nyvqi+E57DRnti32EHsDHYCO4e1Yk2AhR3DmrF27IgSj6y4R4Mrbni22MF4cqDO6DXz5c4qKyl3qnfqcfqo6ssXzc5XPozcGdI5MnFmVj6LA78YIhZPInAcx3J2cnYFQPn9Ub3eXsUMflcQZvsXbslvAHgfGxgY+OkLF3oMgP3u8JVw+Atnw4afFjUAzh4WKGQFKg5XHgjwzUGHT58+MAbmwAbm4wzcgBfwA4EgFESBeJAMpsHos+A6l4FZYB5YDEpAGVgF1oNKsBVsBzVgDzgAmkArOAF+BufBRXAV3Iarpxs8B33gNfiAIAgJoSEMRB8xQSwRe8QZYSM+SCASjsQiyUgakolIEAUyD1mClCFrkEpkG1KL7EcOIyeQc0gnchO5j/QgfyLvUQxVR3VQI9QKHY+yUQ4ahsajU9FMdCZaiBajK9AKtBrdjTaiJ9Dz6FW0C32O9mMAU8OYmCnmgLExLhaFpWAZmAxbgJVi5Vg11oC1wPt8GevCerF3OBFn4CzcAa7gEDwBF+Az8QX4crwSr8Eb8VP4Zfw+3od/JtAIhgR7gieBR5hMyCTMIpQQygk7CYcIp+Gz1E14TSQSmURrojt8FpOJ2cS5xOXEzcS9xOPETuJDYj+JRNIn2ZO8SVEkPimfVELaSNpNOka6ROomvSWrkU3IzuQgcgpZQi4il5PryEfJl8hPyB8omhRLiicliiKkzKGspOygtFAuULopH6haVGuqNzWemk1dTK2gNlBPU+9QX6mpqZmpeajFqInVFqlVqO1TO6t2X+2dura6nTpXPVVdob5CfZf6cfWb6q9oNJoVzY+WQsunraDV0k7S7tHeajA0HDV4GkKNhRpVGo0alzRe0Cl0SzqHPo1eSC+nH6RfoPdqUjStNLmafM0FmlWahzWva/ZrMbQmaEVp5Wkt16rTOqf1VJukbaUdqC3ULtbern1S+yEDY5gzuAwBYwljB+M0o1uHqGOtw9PJ1inT2aPTodOnq63ropuoO1u3SveIbhcTY1oxecxc5krmAeY15vsxRmM4Y0Rjlo1pGHNpzBu9sXp+eiK9Ur29elf13uuz9AP1c/RX6zfp3zXADewMYgxmGWwxOG3QO1ZnrNdYwdjSsQfG3jJEDe0MYw3nGm43bDfsNzI2CjaSGm00OmnUa8w09jPONl5nfNS4x4Rh4mMiNllncszkGUuXxWHlsipYp1h9poamIaYK022mHaYfzKzNEsyKzPaa3TWnmrPNM8zXmbeZ91mYWERYzLOot7hlSbFkW2ZZbrA8Y/nGytoqyWqpVZPVU2s9a551oXW99R0bmo2vzUybapsrtkRbtm2O7Wbbi3aonatdll2V3QV71N7NXmy/2b5zHGGcxzjJuOpx1x3UHTgOBQ71DvcdmY7hjkWOTY4vxluMTxm/evyZ8Z+dXJ1ynXY43Z6gPSF0QtGElgl/Ots5C5yrnK9MpE0MmrhwYvPEly72LiKXLS43XBmuEa5LXdtcP7m5u8ncGtx63C3c09w3uV9n67Cj2cvZZz0IHv4eCz1aPd55unnmex7w/MPLwSvHq87r6STrSaJJOyY99Dbz5ntv8+7yYfmk+Xzv0+Vr6sv3rfZ94GfuJ/Tb6feEY8vJ5uzmvPB38pf5H/J/w/XkzuceD8ACggNKAzoCtQMTAisD7wWZBWUG1Qf1BbsGzw0+HkIICQtZHXKdZ8QT8Gp5faHuofNDT4Wph8WFVYY9CLcLl4W3RKARoRFrI+5EWkZKIpuiQBQvam3U3Wjr6JnRP8UQY6JjqmIex06InRd7Jo4RNz2uLu51vH/8yvjbCTYJioS2RHpiamJt4pukgKQ1SV2Tx0+eP/l8skGyOLk5hZSSmLIzpX9K4JT1U7pTXVNLUq9NtZ46e+q5aQbTcqcdmU6fzp9+MI2QlpRWl/aRH8Wv5ven89I3pfcJuIINgudCP+E6YY/IW7RG9CTDO2NNxtNM78y1mT1ZvlnlWb1irrhS/DI7JHtr9pucqJxdOQO5Sbl788h5aXmHJdqSHMmpGcYzZs/olNpLS6RdMz1nrp/ZJwuT7ZQj8qny5nwd+KPfrrBRfKO4X+BTUFXwdlbirIOztWZLZrfPsZuzbM6TwqDCH+bicwVz2+aZzls87/58zvxtC5AF6QvaFpovLF7YvSh4Uc1i6uKcxb8WORWtKfprSdKSlmKj4kXFD78J/qa+RKNEVnJ9qdfSrd/i34q/7Vg2cdnGZZ9LhaW/lDmVlZd9XC5Y/st3E76r+G5gRcaKjpVuK7esIq6SrLq22nd1zRqtNYVrHq6NWNu4jrWudN1f66evP1fuUr51A3WDYkNXRXhF80aLjas2fqzMqrxa5V+1d5PhpmWb3mwWbr60xW9Lw1ajrWVb338v/v7GtuBtjdVW1eXbidsLtj/ekbjjzA/sH2p3Guws2/lpl2RXV01szala99raOsO6lfVovaK+Z3fq7ot7AvY0Nzg0bNvL3Fu2D+xT7Hu2P23/tQNhB9oOsg82/Gj546ZDjEOljUjjnMa+pqymrubk5s7DoYfbWrxaDv3k+NOuVtPWqiO6R1YepR4tPjpwrPBY/3Hp8d4TmScetk1vu31y8skrp2JOdZwOO33256CfT57hnDl21vts6znPc4d/Yf/SdN7tfGO7a/uhX11/PdTh1tF4wf1C80WPiy2dkzqPXvK9dOJywOWfr/CunL8aebXzWsK1G9dTr3fdEN54ejP35stbBbc+3F50h3Cn9K7m3fJ7hveqf7P9bW+XW9eR+wH32x/EPbj9UPDw+SP5o4/dxY9pj8ufmDypfer8tLUnqOfisynPup9Ln3/oLfld6/dNL2xe/PiH3x/tfZP7ul/KXg78ufyV/qtdf7n81dYf3X/vdd7rD29K3+q/rXnHfnfmfdL7Jx9mfSR9rPhk+6nlc9jnOwN5AwNSvow/+CuAAeXWJgOAP3cBQEsGgAH3jdQpqv3hoCGqPe0gAv8Jq/aQg+YGQAP8p4/phX831wHYtwMAK6hPTwUgmgZAvAdAJ04cacN7ucF9p9KIcG/wfdyn9Lx08G9MtSf9Ku7RZ6BUdQGjz/8CTVSDM2daVRUAAAA4ZVhJZk1NACoAAAAIAAGHaQAEAAAAAQAAABoAAAAAAAKgAgAEAAAAAQAAAMagAwAEAAAAAQAAAOQAAAAA/YYlPAAAKk9JREFUeAHt3deSJLfVLeCk9977phl6csihKAV1IRehG13pkc5LSQrpSjaCVIiiEb0deu+9//tDcM1Jlro1risT1bURgU4PoHauhbU3gKo+5rvNNFQqC5QFfmCBY39wVAdlgbJAs0ARo4BQFtjCAkWMLYxSp8oCx5cJygLffvvt8PXXXw+vvfba8MUXXwznnnvucPzxxw/HHXdcy++///7wwQcfDF9++eUgJD322GOHU045pd13xhlnDK+++urw+eefDyeccMJw8cUXDyeffPKgTM+7dxVTEWMV39oOthmAP/nkk+Htt98eHn/88eHjjz8errzyygZuwD7mmGOG119/fXjnnXeGk046qQFe9eecc04jDxK88MILw3vvvdeu55pnkUdCGs8im/Iy3tMzeYoY7dWt7x8KAdh//etfh5dffrmB+MknnxxOO+201tt/9NFHg+z4V7/6VSOGY4SgEEBOTd544422/+mnnw4XXXRRU47zzz9/+Oyzz4Znn322kY0SIQxCfPPNN02BTj311EYghOkpFTF6ehsztYWLRDEAXO8etwhY7X/11VcDwD/00EOtx3c/Mj399NONIC+++GJTGoB/8803h3fffbcB3/bEE08czjrrrOGtt95q1ygHgiCE5NkPP/ywEeb0009v97rffXO6YUWMmcDYS7XADPh6dnFG8mL7uFgPPPDAgbhhHG8APxBTD0SiQmIPx0hw3XXXNSIhH3fq6quvbqpCcZ577rlGDvdTJS7aVVdddYA82oOglCau3WLblnFcxFiGVVeoTL01wIoRgH27BOTcH0SSHCdHYQAdiBFDeWeeeWZTD24aNZKd56qdd955w4UXXtjUAqmuueaa4amnnmrku/baa4ebb7552NjYaM8jExVRnjqmSEWMKazccR1Amd4e0PXK3BgqIksUwXnEQQz3JYUcenb7rgvmxSvA7JxRLWUhEOWRnUNISgHwzz//fHO31IFY7rcv6KdmAvmbbrppOPvss1P1UrdFjKWat//CBdHACcQAq8fnzgiwAdwxF0dPTV0A37mxeviUzjsnATbQKyNECYFcD+mUx21S9jPPPNMIqh2I6DntEbMoS51Gy4oYLFhp6RYAeuD82c9+1nptvfRll13WhmgFz0BLLYAeoAFXBlg9ecgQRQBgRDOfIeBGDqSQXJPHJAF6BEFCSZlIQV0E4wJ8x8qznSqVYkxl6U7r4b/z92+99dbm8yOGgFnvrMfO3ANXyTGwIhNAA3EIgUTOIcoll1zS3B4xhTkQw7WADtjKk5HDOZnCuOac5xHKKJj7lGlLRdSvffaXnYoYy7bwCpRv6HRjM9CVDyUBMYAiBVAjxUsvvTTs37+/HV9xxRXDvn37GoCNOiEQgCMBBUIucY04A+GU59hWpiBykmueRzT1FTFimdp2ZQFABU49uUBdYEx1rr/++gZsx9wtbpMRpt/+9rdtSJb7xWUSJ8iUxzmTg0arqITM/YqL5oNHSaY0QinGlNbeRXUhhywhCZAjxzhRFcl1RJGohn0BvuwZ8QMymOwzcYgci8SgJNSCSk2RihhTWHmN6gBgPbxEHRJjOI9I3LbMagO/ZSOXX355u3bfffc1BeFuxcUamw6pQrbx+WXsFzGWYdU1LBMZ9ObiDL0/EoglJFuTelwm9yDCnj172ugXpfFsYgouFvJwsQThCEVxjHRdcMEFbc5jCvMWMaaw8i6sI8qgB7fs3IgRV8d8hHMAbukHgiT4fuWVVw70+K4rw1AwdRCIy1SGojgvRqEeJgC5W54x7zJFKmJMYeVdVoceHphlI0V//vOfm1IggGMAvuGGG9ool3sQB+gRR7JPPWwF6lwqo05iDDPgiMBtUo/rlo4gWUazpjBnEWMKK++iOrg4lmlwbYxKJZjWywM7IlAMo0z33ntvIwOl4F5lgs/WswjEhUKKKIVyBd/KoBruMQF54403tgB/KlMWMaay9ArXA7SAqsfmMgFyZsMRgBIAut6de+TYPflGIKDr/ZMogqBbLEE1lGnrHnVkuNZ1cyIWGJqNn8qN0s4iRt5Wbbe1QL7BZ54CeJECESjEo48+2ib4xBIAbJabClCSpDEp7JtVV5ZnBN+yshAK+JWPYEhiRt6ydfdQmqlSEWMqS69YPYDJLQJWPTgF0PNzi8QMXB4E4FYBsOQ48w8IoMeXlOHY6JLlJnp/WyNUMjUye57nHQu6PS97bkpSaHMRgxUqNQsANTIAqyCaewOsiCC2AHA9u2HU8VyDnj+jT57V48vA77xyEMlkHlJsbC49yYQfsqlLPdwyBPKM2MK93C51TZ2KGFNbvOP69NQAqvd+5JFH2srWEAJp9NohDwJJgIws2XcsEAdoLhOXi8rcddddbaTKAkMKAPzKMgqV75pTKee5U9yyu+++u81duH/qVMSY2uKd1afHlgXAhkupA7cpo0+GYAE2PbmtPHZtXHcM1LaUQVwgU4bbb7+9zUNQEK4RVeGCIYUYxdJypEwZ7jFEi1gC+nFdU5mviDGVpTuqR28vODbaxC2iENwYgbPenWujNwf4cQopnBuDlSpQCMDnQl166aVt2bkZbucWR5OQjcqYDTchaPQq5VEHpPBLI9ZSzZWKGHNZfqZ6gVswTR0ee+yxNjFHIfTYst48CrHYRM8mRSUQgevkO9q//OUvGzH0+IiCMK4nhVhiDmSMO4YUyqM4nr3llltafJHn5tgWMeaw+sR1BtDUgfuit9ZL8+0pBVdqkQxAKgM2ACsDASzNMAeBXIJiQbVzYgJKkWeQYjGpA/kE8cqkJMqQ1aMcy9QN5VKaOdN/t37O1lTdO2YBQOYOJX4APK6SFawIwl0axw+LFWd+wXPiD0AGXL35xuaokhiB2yOeMAmHIO7dLmkP903dMmIp0zNUwgJBs9t+8IALJraYMxUx5rT+EuvWOxthMrrk96C4NsDMpwdIpAFWeaskcLY+Se++//tv5nGVnOP7K4MLRBkyyrRVOTmnPQL6v/zlL40Y4hsJWcQTv/jFLw78ntQco1BpZ7ZFjFhiF2zFB+IFCXD9cuATTzzR4gluC5BTCQmo49PrsfX4ASsSWRaOBO6hCIjExTHKxKU61KQdwI9cRp+4b9TKOaRUPtVBjq0C9UOtZ6fvK2LstEUnLg+4EALQMrKkCYD897//vcUTemtgHCeA1DMjATcGMLk3XJtMwplzMKsdFwmZDjdpm7oF+n5QLS4ckrrGZVK+7RwTedt9niLGdpZZkfOCWcH0ww8/3NwmIz7cGyCzjxRbJdeBXu+PJAiWn8bUg+u9Q4ojIUTqpBhilATd2Y8rJ5Yxy5125Lm5t0WMud/AEdSvpwUwMQNS+IUOsYMtAOqBkUOvLAE24IkNjChRFj30xmYQnd4aETJ34BrXa6uRpcNprsBfG82NiC/EPNqErMrPaBYXTZ1HQ8DDadeh3FvEOBQrzXyP3lzPC/RABXAZejXSxHfPkKumugd5JGCjDnplQ6pGffzgADUwI80FQwDXuVUAe7RJ/RSBYplJF19YocuN8lmQUX3qN8olhjmcuOVo23cozxcxDsVKM98jYAYs/9jFxBjg5Rc2AJlSIMZWyXUgNATKRZJuu+225ipRD2UhD3IcrUKkfu2lFDKlQOIE2+4RwCODOQtt6M2N0sYiBit0lPSost5Wr8vFiKv0n//850CvG9fHvXGZMq+ADFSCAlAGI04ACJD2Ez8sa1hUEO+H1oyQZWUuYsRVolx79+5tE4KJYzp6Ba0pRYyO3ojem8sE6NwPW4BGiAy7uo4MYgvnkgTQAlmTZICPAIJpwKME3Bc98064Sqlzq622iSXEPNQCOSgHUiT2sXzkRz/6UWtPyLJVWXOeK2LMaf1R3UghKOb/W1wHVHpZPT9XJAoCeEn2AzjKktljQXTcE1vzFBLyLDNpDzJz67hT2kw9JIS0ONCPJFg1S616JYX2FjFYYYak5wd8Aal9CSn0tMb7gUsADWwJukOCDLUiE4AZ3aEW1IXvTjH0zp6jFu5fdkIEnwWJuVGIjRTaIHHjKNidd97ZCLJskh7t5y1iHK0FD/N5QJcBCYgE1PYBmWtkcR+ALSZAikvETdLrikHEEffcc09TBdepRmKHbBfLWsYxdUBo2UJFQ7QSMsvUQrBtRn0Koh7tZyxiHK0FD+N5CkAJ9KbAo2dFBL0q8OhhkSQJ0LlCFIUrYiYaKZDIPIYZamCjGO5ThmemTohutAyxqZ79JC4eBbvjjjva0nRtX4U0vRVXwSo72EbuDrDHtRCYGmXyfQi9qvVJgA/UALaYnAcsPa7RHPvUg9oYguWeIMschEhbtRvgMxo2dpOolmFiS9Kpmc+zCqmIseS3RCWA+M+bv9ZnLoIq5ItBYyKM99MkhEEck3JZ7m3+QjwBiEDWC9AE/L6jjQjaRBElhEVc7lMvbY19/9e2iPG/rHOY16gDIkQlEGL/5rArl8k2AXWC6nHxQJMRJHGDIBoBjPL4baUcAx5SjHvlcTlz7Gu7tlIFcY8JRW6efQMC+W9Nc7TtSOssYhyp5b5/Tk8v69kzTGkrGKUQlmvwu7lTCKMH5VKEPBlhMt/gHJA5x20SO0hAZlSn16TNCBtVQGzxEGJo98b3a7J6bf9W7SpibGWVwziHFFwe3zMQM3CVBNQmtQTVCIIocZXMKXA5EMUzXCNfCrKQDoGoi/gDSQAMOVYlYEUQbhOSi398ZudWpf3j117EGFvjEPeBVm9o9hkZ+NPcJmDnDnF/uEsm7MZrhBTvWSNKtu4VTHM9EEYgTU0sruOzOz9nUH2I5vjBbYiQ/IMLK3ZQxDiMF6YH1PsDttElhDAhZ5gSKfSMFACYEcM5BHLeOQpghAYhHKdnzTl+OndEXtWEFLshHbP5sv97jHA3fLIlfAYgFzPIlntzl7hKiBK3AagRgSJQDkGyYUy+trF8gSjXi0I4hxz8c/cFVNku4SNUkYdogVKMgxgKiPMLfVwnAbXh1rhJGYVKMYsjTlTAyIwA2neojS4pE4GiHD2NMOVzrPu2iLGAAD094HKD7AM6hfCdZSrhvOuLCdC5R0AO8I6pyJgUAlLuVKX+LVDEWHhHGUlCAoGztH9zDkJwbUh2O88T4AXLFMK+0RlZcC2GMLqUVa4LVdZhhxZYe2JQBbGDYVYL4LhK1vqIH6IMAm3X+f5jYgA8RZAF3YghUwxxAyJYKyTGQJhymTpkwDZNWktiADc14BYZZUIMRPBzM+KJ8epWZABuoAZwAbXgGtBNwokZrGNCDkRBDOXL7qtAehvkdX567YiRuMFEmmFWw60ALz6wuM8I0zgBNzfIPdwsiwG5R/v27WvzDhmpQggKgQghQ7bj8mp/NSywFsRIMJ2teMH/Zcg35bKcIaQQOLuXSgC7pd1cJWohgHa/+IFC2EcA+54rMqwG8A/Wyl1NjMQD3CXLL7hO5h0E04Jr8UTcKoCmJoAuUwKk4Cb5co0ZacSQbMUcYgnnzVJX2l0W2LXEiMsE+JZt/PGPf2yxA5KILwzDjnt49yEDl8moEoWwfskX98UYrlMQ1zyn/LhOuwsS9WlYYNcRA4CNIlnIRxUciwvEFEiRkSaxgyy28DVRrhAlcWxfUC0LqhEixBF0jwlVMNqdFlh5Yui5gV22L/stIz99/6c//emAz+88d0kGcscScnCV/AgZAlAN7tHG5lJp6kBdqAf3qtL6WGDliSFmED9Y0Gf+AZC5PoZfJSSQEIIa2HKj7Ov5bSXxgl+wsDXCJLhGhqhKu6n+rI0FVpIYenUBsDVLAugQI7PT3J+4TIiBDNQAYYBesGyuwvCrfd88y2w1MrgPITxXaT0tsDLEiJsE6EhBKR588MEWS1iqYVGfrSyAjlIgBJBTB6TgNv385z9vP1tjUSCVMATrmnsrlQVYoPtl5wCOFFwj6gDMOXf//fc31aAgen+EAHA9PoKYsDM5J0Zwza/gWeFqCDaLASmF+yugLkKMLdCdYqSn58YYXaIE3B4BNZeJ++QaFXDOpFxcnsQMSCBWcA+3ShZQm6jjOlEGMYTr6svzY8PU/npboDti6P0phKAY8P1zRcOuhl+RZDEBNaDbehaJgJ5S+NkZSuILQX7s2BZhxqlIMbZG7ccC3RADgM0m+4eK5h3MLfgehPVMVMFo01YJKSiE313iMgG6mMF6Judd5ypxmTICtVU5da4sMLbArMQAdj088CKFIdd///vfLY5ADipBNSQ9PXBzfwTfYgSuE3UQM5iHsKUaSGEizr3IINuvVBY4VAvMSgykoBAAjgh/+9vf2ux0gu3EGz4MUogPEMS9CAP8G5sTcUjBVTJjTTHiHmV7qMao+8oCscBsxAj4//nPf7aYgnpQAT2+3j2xgPuyaA/QxQ5GlvzETIJqgXXUJB+stmWBo7HAbMQwnKrn37+5PslM9GIKOZCBqyU7Z+GeGAI5EMKvbFCcSmWBnbTALMTgIiV+oAiLyXVkEUyLIYxGUQRqIXOpHCNJBdSL1qvjnbDALMSgAgLkANyokyUcVEHvb1jVqBQ1QBKulGUbhl8F2MgSUlQcsRMwqDIWLTALMTQC+PX+fm/J9yWQQ+8vtqAUfpjMcKu4wzlE4T6Z2S7XafE11vFOW2A2YiCB4Nmv81ELrhMiSOYdNjZHm6gKFaEayCA7rlQWWLYFZiMGFyi/tCEIB3jHVMSPGyMNgjhf7tKyYVDlL1pgtkWEVMDQrGFaP0yAHIhhPZN4gqIUIRZfVx1PZYHZiOEDIoeMHAm+fR+Cy1SkmAoCVc9WFpiVGFs1qM6VBXqwQEWyPbyFakN3FihidPdKqkE9WKCI0cNbqDZ0Z4EiRnevpBrUgwWKGD28hWpDdxYoYnT3SqpBPVigiNHDW6g2dGeBIkZ3r6Qa1IMFihg9vIVqQ3cWKGJ090qqQT1YoIjRw1uoNnRngSJGd6+kGtSDBYoYPbyFakN3FihidPdKqkE9WKCI0cNbqDZ0Z4EiRnevpBrUgwWKGD28hWpDdxYoYnT3SqpBPVigiNHDW6g2dGeBIkZ3r6Qa1IMFihg9vIVqQ3cWKGJ090qqQT1YoIjRw1uoNnRngSJGd6+kGtSDBYoYPbyFakN3FihidPdKqkE9WKCI0cNbqDZ0Z4EiRnevpBrUgwWKGD28hWpDdxYoYnT3SqpBPVigiNHDW6g2dGeBIkZ3r6Qa1IMFihg9vIVqQ3cWKGJ090qqQT1YoIjRw1uoNnRngSJGd6+kGtSDBYoYPbyFakN3FihidPdKqkE9WKCI0cNbqDZ0Z4EiRnevpBrUgwWKGD28hWpDdxYoYnT3SqpBPVigiNHDW6g2dGeBIkZ3r6Qa1IMFihg9vIVqQ3cWKGJ090qqQT1YoIjRw1uoNnRngSJGd6+kGtSDBYoYPbyFakN3FihidPdKqkE9WKCI0cNbqDZ0Z4EiRnevpBrUgwWKGD28hWpDdxYoYnT3SqpBPVigiNHDW6g2dGeBIkZ3r6Qa1IMFihg9vIVqQ3cWOH7OFn333XfDt99+O3z22WfDJ598MnzwwQfD+eefP5xzzjnDMcccM2fTqu41t8CsxPjmm2+GTz/9dHjzzTeHl19+eXj22WeHffv2Daeccspw/PHHN3Ice+yxbVtEWXOkTvzxZyUGQvzrX/8aXnjhheGtt95qyvHll18Or7322nDWWWcNZ5xxxnD22WcPF1988XDiiSdObJqqbp0tMBsxuFAffvjh8NRTTw0vvfRSc6OogvPvvPPOcPrppzdyXHrppY0glEM67rjjys1aZ8RO9NlnIYbY4quvvmpu1HvvvTd88cUXg3Py22+/3bLPf9JJJw0bGxvDDTfccMC1Ovnkk4scE4Fjnas5ZhOM301pAIrw9ddfD08//fTw8MMPD/fee28LvBEliTqccMIJ7RARrrjiikaSU089tZHk8ssvHy644IIWi1CQSmWBnbbALIrhQ4gp3njjjaYcAm1kQBjEkeJWffTRR8Ojjz7ajhHDsdiEi4Ug55577uB8BefNbPVnhywwOTGiBoJsWY8P2NLHH3/ciBJVsQ1RCJvrVObJJ59sQ7o//elPh1tvvXW46qqrDpijCHLAFLVzFBaY3JXSViB/9dVX2xCtwNs+taACrpnToCbiDXMbyCEYN4z7/vvvD4Z5uVjXXXddm/c488wzhyuvvPJAkG4U67TTTjsKs9Sj626ByRWDwfXqSADQYgUTeohx7bXXNlIgCgJQEqTgPrn3vPPOa9cpzeeff96I9frrrzc3jGtmchBhkOnCCy9sOW7aur/o+vyHZ4FZiKGJyEEFgB9JJAE3N+ndd98d9u/ff2AOAwnMZ1x22WVtaJeiUA0jWpKykAHBEO3+++8fNjZHs37zm9+0OmoOpJmp/hyGBWYjhjYCtBgjcxSOuUG33377gQk96mA4lxuVkSv3cbkSfygLeRDK8hLPIMNzzz3XziMcBUEaZKxUFjiYBWYlRhoH6El6fSSgEFk/BeSZ2KMaVAYBMopFPZDBVkY0gbrRLKriWQE6Vw1BkCpqlXprWxYYW2CW4HvcgK32ARfAs6UGyQghrrC2ivtkrVXOIcw111zTnnXtlVdeaaqCGIhw/fXXDxdddFFTHqokeB+Tcqu21Ln1tEAXirFoemAVNEu2FIOKRCGAnLIgD/eKOpgoFKRnyNc+wkiZIzGpKLD3HKIJ8CkIV0umUuorsjSzrfWfLokxfiNAKlseIkuIYpFhjrlcQG7oV9yBHIkzkEmiPplUdCxuEZNsbAbpykE87tZ4wrAIwlLrmbp0pQ72KoBcDnApgIWH3CdK8dBDDzVXi2KIMVw33ItAURHKQCWQTDncMGuy9u7dO9x0003tGqVJHQdrU13fXRboXjG2MjewjgErhtDT6/kB3lIR7hbgG5lCGomKcL0QJW6Z8/YRxr0SMilHPJJ1WuqotD4WWEliLL4eJEGCuESIYfSKSvhOBxfLEnf3ZMQKOYDdDDlSyFwtsYfvh7hvz549TZlMHConrtti/XW8+yywkq7Udq9BfKH3B3quFnAbtQJ2SmH49oknnhief/75RoSoAtJQCQRDlrhQSIMU1mPdfPPNbRRru7rr/O6ywK5QjLwSgBYzJCGHY9ssLRF0hzBZb2W0SvyBFIjlHonrhVied96WWyZQv/rqq5uCRIVSZ213hwV2FTEWX8k4FgF6vT+Ac7Eym85doigvvvhiAzqXirqETK5RGM8hyjPPPNOGipUtromLhSDqqLQ7LLCribH4isxT6O3FINwtQDeKBfzUIytykQY5JGDncmWlLwWx8lc2ky6Wsbgx3w0pcixafTWP14oYgue4WhQBMQAZwF3jbjmPFIiAMM5xvcQhZtwlqoJQCORLUwhHcazFoiKIYp6FilCWSqtngV0VfB+p+QP0/AgD5eAyZVEiohipeuSRR/6rCsRCKuQxG29JikB9Y3PikMuGiO4pgvyX6bo+sVaKsd2bAN7MpAMw1dD7IwjXSXCOPMDvmpxEUSiH56iM+7hZl1xySfvyFDWyrJ47VuSI1frfFjE235EeHeiBF9DFH3p/xOBOIQe3yz1yYhMjWfbdL9kiCRdKWdwtZSOeck06ysookjSTdfuniPH9qwFUIJaBGrgBnRtluQgF0fML3sUbZsn9MJz5D+SJkthyoTzjlxWRS1nWb3neeqwQR11FkD65UTHGNu8lQNfTUwWLFLlKRq+QwTcNgRpJBN7WaSEINUjg7RnDuVQCyZCFElnRKxaREQcRK/VlgXoj27wPoJfj9lCBuEV6fG4UwCMNNTGjbtQKocQZWf6OTLKkLIG6+RSBvuDeWizlKHsc52zTrDo9kQVKMY7A0GIOoKYGSIIMv//974cHH3ywxRhIgRwHS9yyH//4x22xIjUxmoU0SFJpXgsUMY7A/uMgmwoghtlxcYfs24XcLdcE41RF4jLFbcoSE3Me3DME8xNAvmV4yy23NLfLuVVK3E6fmz2ooPavKsnLlToC5HnZevhx4hJRAK4SJeE+ZRgXCQTqiJJ7xCZUxwSh5JpRLCRSvjLEH+qRlRtSjevtYR8hfFbtN99jX9u5hmIqedVSKcYOvjGgBg5BuMB7/+ZPAFkqouf83e9+19wrYPE9DwG71b5J4hlkkPW2CJSlJkayPANs7uspUQefG8F93scff7x1CjoDCsg9vPvuu7tr98FsWIpxMAsdxnU9OmDr4YEbCYAZeO65557mZog/uBvAZPkIImVdlrgEoJyjGsDGLUM0vbCyLT9RJoXpIWnzP/7xj+ZC+j5LRue0LSuQtT8rAHpo86G0oYhxKFY6xHuAFQAkPT5iSMDu67JcJyNXgGIky7AtF8sIFdcKQUISzwEZcnCjPCMwj6LYZr7EvXMkLpTROUtlDF+PBxwQWyeA5D6b9oqleiH0wexVxDiYhXbgOiXhZwMGJYmrBCz5dwi+py6opy5JgCdzTxDE8hIuGnfKHMidd97Ztrl/6m1cx7iP4/q1O3M9PjtCIIuOozd3cNzu7BcxYoklbwEjPWZUBRGAhCJkdMpQsMDd+YCJ4nC/LGykHJLe2PNUhUuW74Ys+WP8oHhtBHbqGJdR+0JwamK0Dkmo48bmwkoxh8/ruZ5TEWPCtxMQIYjeFrjFI0ghhgBuigBcwCQhh4wcFidKAOlZigNknuGu6JnVkZEsSuXeZSXtUpfBAe3jEnIFEUPyGcUd2icQp4bcPySx9Xyv6bj/t5l6bdxubVd6WqAGZr0tFfHLiMCOJEayAAeY9MiOoxbs4rw5D6t4DZFSE66LYB2plLPseQTt8xl8Wcu+H53QRiRJ0k5EEYj7nNppK/5aNnHThiPZlmIcidV24JmQQ4/rh6yBX+xBPfSm3BC+u94WUbhXgltAA3w9s58gdY2bRUH00IBKWfZvDp3edtttjTjKWwYIfQblArlhaUT1j33GQThTabOUdouXkMOiSu3tUTmKGO2VzfcHuPTusmQ4lgoAPrBzT5DCjLqfF42KcJ2MaAGZcwiCGJLziKFsBOOiASIXTgbGnfTxlWWUTfwQd0qsRCniEsZtRCSq4piyRBlbwzv6U8To6GWMmwJA1ETS4xrqpSgIBIhAD1zpndMrpwwk4Vr5d9H29c5m58UDG99/uzD37sSWatx4442NCNxDI2njOQ1EpYBcKgop5uA+9qgW7FHE2AlULKEMwNeb6unty+npqYmZcP46N0pvTRm4XYiil9YbUxO9NmK4LuutAZSKIBoQI+DRAhSRtRXwlW80yjZJvdrqPjGJe52zpZLa41ovqYLvXt7EFu1ABurA/QEevSwS2BeLAL1eN4sOQwLEyD6CUBOE4W4lXgFSRImroy4pJNyiOQc95VmxEsAbjUJI9cuSLRcQwbUDeWx1AAjaEzH6oehBzb7eN+jRAU8PiyiAxH3hyyMHt0oAbKLQOiyul/vHLpZ7gBXZgJNS2Odm3XHHHc3FiZJ49kiS56iGgP+BBx5o68G4dNqRjBDiJkSgWsg5bueR1LvTzxQxdtqiSywP6ABZlhAiigBgemsEEocYwuVyuR5Xyn5iEoTi6gClXlzPTY24OYCd8hDocEjiXoTznOUvBgy0l4IF/CEoYiCIgF084lnP9ZCKGD28hSNsw5gkCBGXhJIgB8AjADIYqQJI5ABAIEUcW+oiUyOqw8USIHPXKAiwAnEI4pnsb9d016mG57UHCRFU8rx9bUMKWVtDqO3KnPJ8EWNKay+xLqRAFKAz8gTkJtyQQm8NnCb/ZCCP6iCH65LYwDOCeIphhtr/DLEuyxCyOpQvx7Xb7iMhBpKpR1v8xysunkSlXFcOleMWIqH9XlIRo5c3cZTtALSAXU/NzdLTAzvwA50eGQgph/PcJ712fHwEcSxTkEwcmjAEcrFICGilrzq2S9qDEBTDCNoY9AgRdXOfeqiGepEWSVyfMxUx5rT+kuoGLj2+jBRUwzlgRgLBcFwrIHUubk6a5Lm4WO4H1rvuuqspT+KP9PrUIwri3Dg5RlhZG1IfUiGbeqlYyIxAyp+bGDVcO36Lu3AfYAGSWgAf4HFpqMPG5kSfES5gHc85LJrBdUTRq3tOGQBtScr+zYk7xJKAPwRJGeoW71AFzwK98mTlUBWKYp0Ydy/tVBZSLRIt5S57W4qxbAvPXD5gASdAAib3SswgwOZWIQtwZjQIAZDEda6WBPhxvQBWQhKAlwX0nuMKGV1SlhEu9+r5ZbPi2kC9TEyafBTLeM51o1MhlfZSKGXPlYoYc1l+hnoBVY/8k5/8pIFerAF8QGjyEImMDlmXJQgPMdJU1wNok4z+V7r1UYglIYW5CwRQBzUCes/5BmMI6ZyyqY34RdYWiYvlmrYWMZpJ6s+UFgBOwNO7I4aemyrk/xByfeS4SdrG/aE6gOua39HillEe5EAAasBFco8hX6NZgnZqAPS26nWP+5WpXuVok5Ew7XGeq0Z5omZT2qcUY0prd1RXgDoeWeLm6KnFD3p/JJC4Vnr0kMTWvbIAnRIAt+coioQYJgoBnLqoT9lAzlVynMQVUx9iIAyXDNEcK9e99qdMRYwprd15XUBp5AoIkcJQKxBboesHqgFf0tMjB9C7FwHcp9d3jTsmRgFoANfru57hYkRQlufdL9mnWghCddyLcEgiCcynTEWMKa29AnUBuoDcxF7iDqBEmscee6ypBBDLEmXwKyFIkPkRsYVnuEwUyb2WhyCLfWTY2BwRs2bKdaTxLDJSCL8DbJ8aIYp7/fDDlKmIMaW1V6AuAAdsWQJkwHUeaMfzH8ArWw8F7O6lJJ51v2PulhEnxLClJv49tNjDuizXqcdYOZTJfUugT7moDFcs9y3blEWMZVt4xcsHRPMMXBvZV1e5VtyexBmA7D5kkBAIqBMXUAPKghRGoLhIG5sq4AetfaGJckjKoEyGdgXgnpcRjUulfiSdIk1TyxSfpOpYmgUAXqwA0Fwk3yXXgyOInxnV40c9NMK+c1wh7hN3iZI4h0xcJce+I648I1H33XdfUwkEEs+YDac4ykIK7h3XroixtNdcBR+JBQBSL56hVMDOPAO3h4IAMXcpx0hBLSRqEFVBDvcDu6FexEMWSoMY3DVukzqphXKUiYxTpVKMqSy9i+oBcMDds2dPm6sQP+jdAfwPf/hDc5lcHwPZNUCnHmIMGRFCGAThajnnOZOElCSLFymWMqdKRYypLL0L6zEnAayJJZBj7969ze0SS1g2Qh2QAgEoDKDLQC8573kz41wtCoMYsvK4b1GpTDhSmmWnIsayLbyLyw+oTeBJXClLRMQNlpTIXKCoBVXw+7tmxCmA81wqKqIM56hKYhSxBYJwryiJtVUGAqYgRv1/jF0M3Dk+GqADs95fvEExEAhZjCpRmSgIRbAERaDtx62NThn69axESRCGuph4RDLK8utf/3rpH60UY+kmXq8KgFk27EoJkESiAojg2Aw5twhRqApyxC0T1EvuRTIjW84hl6XpRqamSEWMKay8QnUAJBCOk3Oynl4KaAHWPvcn15xLRgYxCIKY1xBcI4YhXgE7l8hCQaNOAvmU3Xa+r8f9ylEHN21jc/5jilTEmMLKK1IHQEuLxAg4ARwBHOvlBcqe4eZQCElckOw6JTDDLT5AAr9e4ryYgWtkC/gm+uwv1q1Ms+QmA7OOy7llpyLGsi3cefl6fEAGdO6NJDg2fwCogIwQsp7defvut45JDOFY4GyINYGy89wgoDcahQTuF3cgl3rdG9K5Tw45KQ2ycZ2MdAnalb8VcZZh4iLGMqy6QmUCKNBa0SoDqgAXmPXsZqQFwIJngTFw2ucWeU52n3ghPTpwC6C5S+6z75y6pATg6nIOUcZzFK4jhfL8Y0tLRIxGTZmKGFNau9O6AFdvbu6BEgiOAVUPDvjiA0rh2Kx0evdsAZtCIIF5BwqiTIpjG0Lk4wuqJefFGdRGolwI5Od/jERRLqt8LSKcOhUxprZ4Z/UBIvdELx0iIMM4cXm4UYkvAmz3eNZ5CRFM6lGPsUoggGy0yjXPZOTKt/vy/XD1IyR1oEpIY3JP26ZORYypLd5ZfYgBjECop08CXtl1OWRwzghRVMBxgG+fajjmcnHHlO1Z1ygDJfA8BQJ6CpPfq+I+IYFn3D9nKmLMaf0O6gZSQAT+gF2z9OzOZ2QJYMUEAB11oRQy4FMVz/vtKWDn/nCvqI8RKc9QgRBD2VEN11KW7dyk8PmLGKywxgkQkYA/v7E5R8Cd4evrxYHbcUaiEICqADIiBczcpiiKQNnwKsVAJO4VcnmOIlCRXsD/v157LQn5X9ZZk2t6egTwi4OWZQi2Bb35ETSg1osDP1AvujpRmh56+p16ZUWMnbLkipcD3Hp2asEt0uOLCbg7AC9Tieyv+Mc9aPOLGAc1Ud2wjhb4/z/us46fvj5zWWAbCxQxtjFMnV5vCxQx1vv916ffxgJFjG0MU6fX2wJFjPV+//Xpt7FAEWMbw9Tp9bZAEWO93399+m0sUMTYxjB1er0tUMRY7/dfn34bC/wfoFWNVckCrmAAAAAASUVORK5CYII=;" vertex="1" parent="WIyWlLk6GJQsqaUBKTNV-1">
          <mxGeometry x="327.75" y="116.26999999999998" width="51" height="58.73" as="geometry" />
        </mxCell>
        <mxCell id="Fvf0qzC7fpE67HuZ9lT4-39" value="&lt;font style=&quot;font-size: 10px;&quot;&gt;location/&lt;/font&gt;" style="text;html=1;align=center;verticalAlign=middle;whiteSpace=wrap;rounded=0;fontStyle=1" vertex="1" parent="WIyWlLk6GJQsqaUBKTNV-1">
          <mxGeometry x="310.88" y="314.26" width="52.25" height="24.83" as="geometry" />
        </mxCell>
        <mxCell id="Fvf0qzC7fpE67HuZ9lT4-40" value="&lt;font style=&quot;font-size: 10px;&quot;&gt;location/&lt;/font&gt;" style="text;html=1;align=center;verticalAlign=middle;whiteSpace=wrap;rounded=0;fontStyle=1" vertex="1" parent="WIyWlLk6GJQsqaUBKTNV-1">
          <mxGeometry x="310.88" y="95.17000000000002" width="52.25" height="24.83" as="geometry" />
        </mxCell>
        <mxCell id="Fvf0qzC7fpE67HuZ9lT4-41" value="&lt;font style=&quot;font-size: 10px;&quot;&gt;location/api/..&lt;/font&gt;" style="text;html=1;align=center;verticalAlign=middle;whiteSpace=wrap;rounded=0;fontStyle=1" vertex="1" parent="WIyWlLk6GJQsqaUBKTNV-1">
          <mxGeometry x="314.75" y="393" width="60" height="30" as="geometry" />
        </mxCell>
        <mxCell id="Fvf0qzC7fpE67HuZ9lT4-42" value="&lt;font style=&quot;font-size: 10px;&quot;&gt;location/api/..&lt;/font&gt;" style="text;html=1;align=center;verticalAlign=middle;whiteSpace=wrap;rounded=0;fontStyle=1" vertex="1" parent="WIyWlLk6GJQsqaUBKTNV-1">
          <mxGeometry x="310.88" y="175" width="60" height="30" as="geometry" />
        </mxCell>
        <mxCell id="Fvf0qzC7fpE67HuZ9lT4-43" value="" style="shape=image;verticalLabelPosition=bottom;labelBackgroundColor=default;verticalAlign=top;aspect=fixed;imageAspect=0;image=https://miro.medium.com/v2/resize:fit:900/1*ZIWWlLt8O9w3-spKcqI4mA.png;" vertex="1" parent="WIyWlLk6GJQsqaUBKTNV-1">
          <mxGeometry x="234.88" y="339.09000000000003" width="83.87" height="55.91" as="geometry" />
        </mxCell>
        <mxCell id="Fvf0qzC7fpE67HuZ9lT4-44" value="" style="shape=image;verticalLabelPosition=bottom;labelBackgroundColor=default;verticalAlign=top;aspect=fixed;imageAspect=0;image=https://miro.medium.com/v2/resize:fit:900/1*ZIWWlLt8O9w3-spKcqI4mA.png;" vertex="1" parent="WIyWlLk6GJQsqaUBKTNV-1">
          <mxGeometry x="374.75" y="175.91000000000003" width="83.87" height="55.91" as="geometry" />
        </mxCell>
        <mxCell id="Fvf0qzC7fpE67HuZ9lT4-45" value="" style="shape=image;verticalLabelPosition=bottom;labelBackgroundColor=default;verticalAlign=top;aspect=fixed;imageAspect=0;image=https://miro.medium.com/v2/resize:fit:900/1*ZIWWlLt8O9w3-spKcqI4mA.png;" vertex="1" parent="WIyWlLk6GJQsqaUBKTNV-1">
          <mxGeometry x="372" y="399.37" width="83.87" height="55.91" as="geometry" />
        </mxCell>
        <mxCell id="Fvf0qzC7fpE67HuZ9lT4-47" value="" style="shape=image;verticalLabelPosition=bottom;labelBackgroundColor=default;verticalAlign=top;aspect=fixed;imageAspect=0;image=data:image/png,iVBORw0KGgoAAAANSUhEUgAAAQwAAACUCAYAAABmzhcJAAAMTWlDQ1BJQ0MgUHJvZmlsZQAASImVVwdYU1cbPndkQggQiICMsJcgIiOAjBBW2BtBVEISIIwYE4KKGylWsG4RwVHRKkNxVUCKC7VqpSjuXRyoKLVYi1v5Twigpf94/u95zr3vfc933vN93z13HADoXXypNBfVBCBPki+LDfZnTU5OYZF6AAKMABPYAyO+QC7lREeHA2jD57/b62vQG9plB6XWP/v/q2kJRXIBAEg0xOlCuSAP4h8BwFsFUlk+AEQp5M1n5UuVeB3EOjIYIMQ1Spypwq1KnK7CFwd94mO5ED8CgKzO58syAdDogzyrQJAJdegwW+AkEYolEPtB7JOXN0MI8SKIbaAPnJOu1Genf6WT+TfN9BFNPj9zBKtyGTRygFguzeXP+T/L8b8tL1cxPIc1bOpZspBYZc6wbo9yZoQpsTrEbyXpkVEQawOA4mLhoL8SM7MUIQkqf9RGIOfCmsH7DNBJ8tw43hAfK+QHhEFsCHGGJDcyfMinKEMcpPSB9UMrxPm8eIj1IK4RyQPjhnyOy2bEDs97LUPG5QzxT/mywRiU+p8VOQkclT6mnSXiDeljjoVZ8UkQUyEOKBAnRkKsAXGkPCcubMgntTCLGznsI1PEKnOxgFgmkgT7q/Sx8gxZUOyQf12efDh37HiWmBc5hC/lZ8WHqGqFPRLwB+OHuWB9IgknYVhHJJ8cPpyLUBQQqModJ4skCXEqHteT5vvHqsbidtLc6CF/3F+UG6zkzSCOlxfEDY8tyIeLU6WPl0jzo+NVceKV2fzQaFU8+D4QDrggALCAArZ0MANkA3FHb1MvvFL1BAE+kIFMIAIOQ8zwiKTBHgk8xoFC8DtEIiAfGec/2CsCBZD/NIpVcuIRTnV0ABlDfUqVHPAY4jwQBnLhtWJQSTISQSJ4BBnxPyLiwyaAOeTCpuz/9/ww+4XhQCZ8iFEMz8iiD3sSA4kBxBBiENEWN8B9cC88HB79YHPG2bjHcB5f/AmPCZ2EB4SrhC7CzeniItmoKCNAF9QPGqpP+tf1wa2gpivuj3tDdaiMM3ED4IC7wHk4uC+c2RWy3KG4lVVhjdL+WwZf3aEhP4oTBaWMofhRbEaP1LDTcB1RUdb66/qoYk0fqTd3pGf0/Nyvqi+E57DRnti32EHsDHYCO4e1Yk2AhR3DmrF27IgSj6y4R4Mrbni22MF4cqDO6DXz5c4qKyl3qnfqcfqo6ssXzc5XPozcGdI5MnFmVj6LA78YIhZPInAcx3J2cnYFQPn9Ub3eXsUMflcQZvsXbslvAHgfGxgY+OkLF3oMgP3u8JVw+Atnw4afFjUAzh4WKGQFKg5XHgjwzUGHT58+MAbmwAbm4wzcgBfwA4EgFESBeJAMpsHos+A6l4FZYB5YDEpAGVgF1oNKsBVsBzVgDzgAmkArOAF+BufBRXAV3Iarpxs8B33gNfiAIAgJoSEMRB8xQSwRe8QZYSM+SCASjsQiyUgakolIEAUyD1mClCFrkEpkG1KL7EcOIyeQc0gnchO5j/QgfyLvUQxVR3VQI9QKHY+yUQ4ahsajU9FMdCZaiBajK9AKtBrdjTaiJ9Dz6FW0C32O9mMAU8OYmCnmgLExLhaFpWAZmAxbgJVi5Vg11oC1wPt8GevCerF3OBFn4CzcAa7gEDwBF+Az8QX4crwSr8Eb8VP4Zfw+3od/JtAIhgR7gieBR5hMyCTMIpQQygk7CYcIp+Gz1E14TSQSmURrojt8FpOJ2cS5xOXEzcS9xOPETuJDYj+JRNIn2ZO8SVEkPimfVELaSNpNOka6ROomvSWrkU3IzuQgcgpZQi4il5PryEfJl8hPyB8omhRLiicliiKkzKGspOygtFAuULopH6haVGuqNzWemk1dTK2gNlBPU+9QX6mpqZmpeajFqInVFqlVqO1TO6t2X+2dura6nTpXPVVdob5CfZf6cfWb6q9oNJoVzY+WQsunraDV0k7S7tHeajA0HDV4GkKNhRpVGo0alzRe0Cl0SzqHPo1eSC+nH6RfoPdqUjStNLmafM0FmlWahzWva/ZrMbQmaEVp5Wkt16rTOqf1VJukbaUdqC3ULtbern1S+yEDY5gzuAwBYwljB+M0o1uHqGOtw9PJ1inT2aPTodOnq63ropuoO1u3SveIbhcTY1oxecxc5krmAeY15vsxRmM4Y0Rjlo1pGHNpzBu9sXp+eiK9Ur29elf13uuz9AP1c/RX6zfp3zXADewMYgxmGWwxOG3QO1ZnrNdYwdjSsQfG3jJEDe0MYw3nGm43bDfsNzI2CjaSGm00OmnUa8w09jPONl5nfNS4x4Rh4mMiNllncszkGUuXxWHlsipYp1h9poamIaYK022mHaYfzKzNEsyKzPaa3TWnmrPNM8zXmbeZ91mYWERYzLOot7hlSbFkW2ZZbrA8Y/nGytoqyWqpVZPVU2s9a551oXW99R0bmo2vzUybapsrtkRbtm2O7Wbbi3aonatdll2V3QV71N7NXmy/2b5zHGGcxzjJuOpx1x3UHTgOBQ71DvcdmY7hjkWOTY4vxluMTxm/evyZ8Z+dXJ1ynXY43Z6gPSF0QtGElgl/Ots5C5yrnK9MpE0MmrhwYvPEly72LiKXLS43XBmuEa5LXdtcP7m5u8ncGtx63C3c09w3uV9n67Cj2cvZZz0IHv4eCz1aPd55unnmex7w/MPLwSvHq87r6STrSaJJOyY99Dbz5ntv8+7yYfmk+Xzv0+Vr6sv3rfZ94GfuJ/Tb6feEY8vJ5uzmvPB38pf5H/J/w/XkzuceD8ACggNKAzoCtQMTAisD7wWZBWUG1Qf1BbsGzw0+HkIICQtZHXKdZ8QT8Gp5faHuofNDT4Wph8WFVYY9CLcLl4W3RKARoRFrI+5EWkZKIpuiQBQvam3U3Wjr6JnRP8UQY6JjqmIex06InRd7Jo4RNz2uLu51vH/8yvjbCTYJioS2RHpiamJt4pukgKQ1SV2Tx0+eP/l8skGyOLk5hZSSmLIzpX9K4JT1U7pTXVNLUq9NtZ46e+q5aQbTcqcdmU6fzp9+MI2QlpRWl/aRH8Wv5ven89I3pfcJuIINgudCP+E6YY/IW7RG9CTDO2NNxtNM78y1mT1ZvlnlWb1irrhS/DI7JHtr9pucqJxdOQO5Sbl788h5aXmHJdqSHMmpGcYzZs/olNpLS6RdMz1nrp/ZJwuT7ZQj8qny5nwd+KPfrrBRfKO4X+BTUFXwdlbirIOztWZLZrfPsZuzbM6TwqDCH+bicwVz2+aZzls87/58zvxtC5AF6QvaFpovLF7YvSh4Uc1i6uKcxb8WORWtKfprSdKSlmKj4kXFD78J/qa+RKNEVnJ9qdfSrd/i34q/7Vg2cdnGZZ9LhaW/lDmVlZd9XC5Y/st3E76r+G5gRcaKjpVuK7esIq6SrLq22nd1zRqtNYVrHq6NWNu4jrWudN1f66evP1fuUr51A3WDYkNXRXhF80aLjas2fqzMqrxa5V+1d5PhpmWb3mwWbr60xW9Lw1ajrWVb338v/v7GtuBtjdVW1eXbidsLtj/ekbjjzA/sH2p3Guws2/lpl2RXV01szala99raOsO6lfVovaK+Z3fq7ot7AvY0Nzg0bNvL3Fu2D+xT7Hu2P23/tQNhB9oOsg82/Gj546ZDjEOljUjjnMa+pqymrubk5s7DoYfbWrxaDv3k+NOuVtPWqiO6R1YepR4tPjpwrPBY/3Hp8d4TmScetk1vu31y8skrp2JOdZwOO33256CfT57hnDl21vts6znPc4d/Yf/SdN7tfGO7a/uhX11/PdTh1tF4wf1C80WPiy2dkzqPXvK9dOJywOWfr/CunL8aebXzWsK1G9dTr3fdEN54ejP35stbBbc+3F50h3Cn9K7m3fJ7hveqf7P9bW+XW9eR+wH32x/EPbj9UPDw+SP5o4/dxY9pj8ufmDypfer8tLUnqOfisynPup9Ln3/oLfld6/dNL2xe/PiH3x/tfZP7ul/KXg78ufyV/qtdf7n81dYf3X/vdd7rD29K3+q/rXnHfnfmfdL7Jx9mfSR9rPhk+6nlc9jnOwN5AwNSvow/+CuAAeXWJgOAP3cBQEsGgAH3jdQpqv3hoCGqPe0gAv8Jq/aQg+YGQAP8p4/phX831wHYtwMAK6hPTwUgmgZAvAdAJ04cacN7ucF9p9KIcG/wfdyn9Lx08G9MtSf9Ku7RZ6BUdQGjz/8CTVSDM2daVRUAAAA4ZVhJZk1NACoAAAAIAAGHaQAEAAAAAQAAABoAAAAAAAKgAgAEAAAAAQAAAQygAwAEAAAAAQAAAJQAAAAAPuACVwAAQABJREFUeAHtnWd3XEe2nqsTck4EGEEFShqFSb4znjX3gz/4h/n33J/gZXt5ea49c0ejMMqiRBIMyDnH7vbzVONQIAiSANiIrJIOu9F9TtXpfc5+z7tD7cpVaSG1JIEkgSSBQ0ggf4h90i5JAkkCSQJRAgkw0o2QJJAkcGgJJMA4tKjSjkkCSQIJMNI9kCSQJHBoCSTAOLSo0o5JAkkCCTDSPZAkkCRwaAkkwDi0qNKOSQJJAgkw0j2QJJAkcGgJFA+9Zx12NEcsyxPL5XLBbX/L9vHV7/P5hGn7ZZT+ThI4KwmcKmCUy+XgJhiUSqVQKBSe+92VSiXs7OwEX4vFYgKM5ySUPkgSODsJHBswVOj19fWwtrYWNjc34y9YXl4OMzMzERA2NjbC0tJSaG1tDe3t7aGrqyuMjIyEubm5CBayBwGjqanpGaaxvb0dtra2gse//fbb4ZNPPgktLS0RPM5OTGnkJIEkASVwJMCQGajQi4uLUfF9XV1djcotgMzPz4fx8fEIGAKJf3d0dIS+vr5w/fr18M0334SxsbHQ0NAQ99HcaG5ufoZFyC4cw+N9vXHjRgQY2UZqSQJJAmcrgSNpoeaErOHTTz8Nf/3rX4OMQhCRKcgKVHD3sfm5ILKyshJBxb8FAV9lJn7ne7/f3/w8+05GIjtpbGx8Blj2H5P+ThJIEjh5CRwaMAQDzY2//e1v4bvvvgtTU1MRJPRFaFYIGL7v7u6OPghZRFtbWzRXNCl6e3vjfrINQcL+BAWPzRiHYCQw+Ldj+Z1gJBM5yEF68uJJIyQJJAnslcChAEPFXlhYCA8ePAhffPFFNDsECFsGDIKFADEwMBCV3PeChGxCpZcl2DzOvvR7CALuJzA4xuzsbDRRBI3Hjx+Ha9euRZPGvhNgRPGlf5IEzlQCrwQMFVnz4d69e9EU0azYq7z6IAYHB6MponPT9/odBAsdnu6rmSJwZM5L/RR+5ncCjq/ZOLIJ3+sbETj0gST/xZneI2nwJIGnEnglYKjMbpoaRi0EhJ9++in8/PPP0VQQGN57772o2AJC5mvQvyFjkEEIHJkfQuUXENxsso/svePY/Nu+BA+/Ty1JIEngfEjglYDhaaq4mamhn8Hox/3796Myq9h+Nzw8HH0YAoWmy8TERDQ9Ojs7I8jcvn07+D7zSez9+RlQZJ/5t2ZIakkCSQLnSwKHAozslDUT9GGMjo5GJqEfwijGCPkVMgmZwcOHD8Pnn38e/RyaHgKEpsqVK1fCn//858hGBJn9IJGNkV6TBJIEzq8EDg0Y+ho0LXyVKajw09PTMbQqSFy9ejUChmBihMMcjczU0H8huAgcfi643Lp1K/T39yfgOL/3RjqzJIHnJHBowNA3IVDIFAQL/9Y8kXWYjKUJohkhMPgqOPjq9zo4fTUcK7gIPH/84x+jqWM/bgJRakkCSQLnWwKHBgxNC5VaENBx6d9GT9wECfMz3nrrrZjKLVgIKkZL/v73v0efhoBh7oUg47Eyja+++ioM4/v44IMPIuNI+Rbn+2ZJZ5ckcGjAyFiFURKBQ1agc9MwqyaHgOB3spA7d+5E9mDI1X01TQSWnp6eCBaaMrISQUMHqkBhfyZ1ub9jpZYkkCRw/iRwaMDw1FXmmzdvRsXXcfn111/HSIjJWIJClluhf0KAMBvUJgAICvo5BAZBwmNkG4JGZpK8//77sW+BJrUkgSSB8yeBIwGGim9WpozC904oMxIiY9AsyYBBs8X9VPzf//738fXHH3+MgCNw6MMQYLJs0RGiLGZ/Gl3513/91/CnP/3p/EkqnVGSQJJAKPw32mHlkAGCTMLN5meyCf0SMgUBQRDRz6EJ4mdGRdyGhoaeOkM9JpusJnCYvyFoCDYyGZmHY/i3Y7illiSQJHC2EjgSYGSnmjlAVWyBIVNoJ5Xp11DZVXSTtQQKE7vMEvXVjE+BRLDQ7yEzycKvAoTsRVPG0KxNB2rmZE2gkV2B9JokcDYSOJJJkp2igKHJYVq4zECFlh2YCq7SCwA6QLPELVmHAOJxvso6ZBiCwd27d+OxgocOVMFGENEpOjk5GR49ehQ+/PDDGHERaFJLEkgSODsJHAswfNILEpmzUiAQKDQtBAnBQ2VX6Y186CB1n2zLwEP2YVRFRiHYCBYyiyxykgGI4CJ70Wlqspf9CUKpJQkkCZyuBI4FGJ6iLCIzJQQQHZwCiKaGDEFHqBW2fvvb30YFz36Wiu5+bjKUd955JwJGNvfE1PMsV0MAEkzsU/BxursOUZ2tgo4tmSmZZNNrksDJS+DYgKGi6sOwqdjOZrUOp0xAIPF1hOiHYVi/04TZ3+xDANGv4ff2I3vQnJFpyDpkKzINAcM+ZR8CRpZa7rEyldSSBJIETl4Cx3J6elqZsgsSKrp1KwQKzQpNCE0UmYEmhwrt9wexAT+TLchQDLe6CTD6NwQRAUXQcBz7lLk44U2fh0xENqOp436+HjTGyYsxjZAk8GZI4NiAkYlHMPCJLytQWWUAe7M/BRHNDxmBSv2y5vGChIBhCFaTxb+fPHkSfSOCjkAhYPiZdTk0WQQcgSbzlbxsjPRdkkCSwPEl8NqAkT3RVWQjJrINAcMnvw5Q/7YJLAKHAPCyZn9ugosmj0xD8LBIj2HaDJDcRyZj/wKIYxmS9b3HOlbW18vGS98lCSQJHF4Cx/ZhZENkyq054BM+YwUqbWaiWJ/zhx9+eGp2GGF5VfN4zRQBxnBqBgiaIY6jf0Pw0K/hJkBoDnmcKebmfXic53Vazd/redo8Dzflk1qSwGWRwGszDAWhUqiw+hhU4pHdBYtkAFlTkQyxam7IHA6rSO6n0gsygoczYg2tyiz0bchsbJolgokp6J6H+zoVPwOMw46Xne9xXv29no++G987tqCRWpLAZZFAXQBDYaiQKoeK6qayqNA+dVVgnZaCiqxB4DiqItm/m8CRmSr2JXjoH3EcAUOzyPeO599OkDO8KyPxnPSDnERzASdZlOMJWrIqz89zzULAJzFu6jNJ4DQl8Grb4Ahno6lgcpVKYtMxqdJmfg3faz7sZR5H6P7prvo1NDlUSPsTSL788ss4jkDkE16WY0RFxiO7MbwrcAlae7ennR7zTWaGWBjos88+i+FffSkCk+aZvhvlklqSwGWQQF0BI2MAKorzRjQ/fNKrVCq5iVdGUzIz4bgCFBQEJaMz9m1zHEO4NpdEEKx8ygsW7m/pQNmJoCWoWdzHc3ndZv+ClmNaEMi/s3NyLMHDv5VNakkCF10CdTNJMkGoGCqorzIAE6t8uv/mN7+JkQ79Cj7hX1eBPF7gyTZpv2Np7uhH0AGa5YS4r6xD5ZVxmFWqYnsevvr9cc0GwUDGJCAZ4jU6JJPxM9/LrtzHsRzjdX93Juf0miRwFhKoK8PIfoBKIcswLdwnuX8bGpUVvC67yMbY/6ovwzGzMKuhXZsgIVgIDCqwGaPuo0KrxDIfmZARFd8fVakFR/vx9w0PD8eQsuM5lmu32ARON3+7+SKpnZ0EKruM1Bduy4BnLL6e3RldrJFPBDAUgfRf+11Fyf4+6adrprzObtURqqMzWyPFp74O0YxhmK/x/fffR8VWiTVT/vCHP0RT6ijn6ZiCjOPJbDRNNFFkFYKUclAGApWfGeVJ7WwkUAEkdnhQlHlTYSsWyA7Ow4gjaAgdqb1KAnU3SbIBVTqVKTMZ/Psoipj1c9RXx1CBjdQIBDofZR/6TzRZPKesQph+DwFE00V/g85JlVzFP0p0wzEFBn+rjMY+7FsW4+eOaX/6WDyH05LFUWV3mfff4oExv7YRPh0ZD/+4/yR8PfIkzKxshPUdijQVmVLAj/e65NlSe7EETgwwXjzk6XyzV0l1wOo7EUD83Kn3miWaDoKDzENWYPNV8BBwMhPqMAouMGQgkwGR/fte80jQEjAEMzfPw35TOx0JzK9vhHtTc+F/fPsg/OOnh+GHh2Nhbn0TwCDRDraxU645phsAD9Ej4xvpEj17fS4tYDz7M2t/qdCChqaST3p9D+aK6G+QDQgUsg9nygocmjEylIwlHdTn3s8EAVmKLMN+7SPzlziun2smCRzu5/6pnbwENAW/HZsO//uHkTA6uxi2y5VQaijBLFfC6MRs+P7xRJhYWw9bAEd3KxMeM6aho2O3JXCvCeKNAgwV36e7yioQ+CrD8IaKdBQFlhXIOPxchVfJ3WQKvtqHbOKgG8jP7F/wsR+jMbIL+7dl4GE4NwOi2mVI/56kBJT+t2NT4bMHY6ELQHh7qDd8fGsoDHa0hSYeIhsAyNIq85CW18IcwLGyuR3WtrgPNjbDxnY57MT745czfJPNljcKMLzkKrwMQ4X1VcXOzAmjJCq3Pg1BQ5Yg4xA43DJTRXNFULDtZQkZ6Aga9jlC8pjHyVQEG19lNeaPyHDcL7WTlYBg4fbD+Ez4EZZxe6A7/Kfha+G/vDcc3hkistbNolulYphbWA5jMwvh3jTzkza3wiJgMbe6FpY0KQGQre2dsM01h4SEIo7S+MDgAfGmGZVvHGBkt6eKrvJmBYqdDSuI2GQFGVMQJLLp9K5Yn/k1BALBx7/3sw3Bwu8EHfuyD8fLAOX27dsxBOz4qZ2sBFRo5T6zshYml1bD7Mp60E8x3NsVWhtLobetJdzk/WB3R2hobghTfL+4hKkyORcePJkKPz6aCt8+nAjfjE6F0UWYJ8DR4gOB61kUMOJ2sr/hPPX+xgKGF1ql1iyRWehXMPyZ5WWo9Po2ZBkqu0zEiEoWntXP4XsZid/Z9oKCnwsqgo0JXTb7N1fEiE0WbvYYzyO1k5OAoLGD2eHCGI9gEfowWhopndDcGDpgi53NTaGN9/7t6xVMlf6O1tDb3hraWxphi4WwAlAsAiYz+D3mMF82ia7kYRoNpdoEwzfFTHljAWPv7Zk9+QUL8zGsMyoI6MeQHZjUJZPwbwHAnAoBw/Cppomv9iHI1J44uQgk+iwywBBcZDCCha/u5xhZNGbv+aT39ZdAC9evHZC4OzETFX4Zs6MPdtHRxNwiTJIWnKD6ND68OhA+ujkYPsLH8eGtq/g7+kJfD8yTnI2FxdXweHIm3JuYCyv4OAoASQssxbBsie+5qJfeREmAccC9qTLr39A5aUKWEQ6VX5CQOWSsQoV3ky3oFJWNyEJkDYKP7EVfhSFVwUbG4v5ZeNf3MhtBwzFTOzkJyAaKMLnGhgI+iY3wE+ZGRwuMEsCQYSh+WULtMtRMjRLHtGI29gMstzBbbl/pCVd43cSPMY95MzI+HcZXdJqHGF0p5KiBEvu4vNcyAcYB96jKKwjIBGQXKr5MIjNJZBQyBhXeV30RgoVT3J30poPTPgSDzNRxNqtsQ+DwOEHHfh3D42UnqZ2cBLweZnW2wjLWNnfC+PxSjH5obgx1sliWpiHfm4HxhO/GcIIukbvRBPPobKGIU2szoMDcKLbmJmdjY3KubYYpgGOFh8kWeRxN9KV/RLZxWR8ACTBecI96wVVigSMzSTRPshCrCi9wuOmDMBnMNHRTwwUGP3d+iUzDZhq6vows8mL/mS9DcyexjBdciDp+7NO/DcDgJWzS78+T82EbX8Q7Az2hCbOkmC8QBamSDToa/vlkIowuLMFAGkI3TERAEQy6AI93YRp9mC/5hmJ4QOTlIZGVR/PLoRMw6aB//SNe38sIGgkwDnFDeuFVaE0UoyeCgeAhaNgEER2cmi1+rxljJERW4n6GZp1q7z4ZuxBkPF7Tx01guqw32SFEfKq7FGAAAsQ9/Bk6Q3VwtgIMfqZZscn1XSaU+vPkHA7Q9nClsy2CxV4AaORh0g14DHQRmifCPgErmQJgtuhP4PD7EtdYcLpMLfHgQ1xNb5RMsQUBwUNTQyaRzUPRNLG5r74KzRc3m8Dg/qan+13mz/B7/SL6OfRraKLINlI7WQnIMm7gyOxA4RdWSRmHIegA7cKXoWUoQJi8NUcotg0gOSgCYki2oUguD99XAZlytRJGJmfD148moq/kd8NXwzVCtTpFLxNmJIZxxHtT88T6Hnfu3ImsQFahmZH5M2QfOkAFE80Usz1lGR999FEEhGzimwxDkPDVTbCQZSTAOOIFOcbu0THJcfdnF2LERGC40dsJaLRGJtGM38L8jBs9nVHpW/m7gEmyv+nziNEVAGaQBLD7s0vhEfNV7o9Oh76u9uj30KSRZlwW0EiAsf8uOMTfsgj9G/onTPzSFyGQ6LwUQASPLJXc7gQCIyUyCfcXNAQR99Oc8dXm9zKZ1E5eAlqTyxtbzGBdD0+m58I7V/rCAH6JJvIqvL5ujfgsNC0EBv9+UfM7zRn9G6aRj+PPWMRhWuGQq12d+D90uD4POC/q7zx/nkySY1wdw6aCg8qfLbqkf8NqX34uszDLU+ZgFMTvBAOTttzHosSaIvo0ZBQChqaOm+bLy27OY5xuOuQACRhm1Sx5ODMX/sms1VmSsYyKdMAITKlQyYswi8M0oyIdmDOf3MDkJMFrgWnzY7Pz4ZuH42GwqyO8N9gbevFrXAbQSIBxmDviBfuo2Cq87EK2oY9CYLB6uE5OTY7h4eGnizAJIAKFIKIJIsvwWJ2kpqbLLgQN90vtZCVQ4NoN4bCUVZA4E6bJp5ggJVz/RS6HmfhiQnHgidmfWaO/vjkUmnF8/9v/+Tw8xKfx37/5mcgMoVkySC8DYCST5MDLf7QPBQ5ZhxESlV7mIQhYXUtA8Hudnfo19GkYetXhqfmiaSOryMySLJSbWMbRrsFR947XjOuyglkyRz7FCtfHkKoJWmZuGkY9ahNjPK6R+2CjQiEm+h7Hp9GBP8RQqyaL+1zka5sYxr67QuU14qEjUwemERGbn/v092K7yQJUePcVKNz8TJNEf4VA4ffWv3AzB8OJaParKWJ/brIMv5OpaLLYn59f5Jtqn0jP7Z8qtwzjE9LA/+PeI8wTZ6vOhdt93Tg9a7kXRz15/R797c3h18yIXcHUeTTBLNknk3GeyiDsRSep4daL2hJg7LtygoKOyC+++CIqtslXNhVZAFGRBQeBRCAQBAyZ6pvQuSlzcD/7kVW4j2aIx+vX8Pu9ZkeWCGafAoabbCW105HAQHtL+MPta8wxmQpP5pbCX34cwRwhI5SkLNPCeXvkZgLYB4N9YZb6Gt+MzcRwayN+jl9d6495HX5/nH6PfCIncEACjH1C9emucvvUH6Gexd27d5/ZQ2XOWIaREPcVPAQMfRaaHVnkw+/cx81jNDtkHQKG7/1M8+Xdd98Nv/vd7yIzSf6LZ8R94n9ofnQxI/Xj64OhQtLVPaaxv4+yG1JthvUJHkdtHiKLuEWo9s/v3Qr//s+fSOpaCV+Qo/Evw4TQDdMeo9+jnsdJ7J8A4wCpqtAmV+lvkBXYBIpMmQUVWcRe8JBJ6L9wfzeZh4DgPvol3AQWnaOChk5PzRdXcPvggw+i01OzxGNSOz0JmJOhGXELgBgjL+NzHJ/6NUwZx2jkv+PlUHgZBzBB/oUErh8ejIex+cXw1ch4rMMxxOf5PDObT+9n1m2kBBgvEGWm7BlIZIosaxAwBAJfBRebjMHvNEs0RWQZHiNIZFmc+jYMsco4/MyoiiaPZojgYZ+pnY0ENrl2rFkXSkQzmnBQNsICVOjXUWoTvq6S7Tk02B0mqd517/FkmH7nZli7slOrVH4BHw4JMPbdnyqtSv/JJ5/EEKlOSsOgfiYAZI5OgUTA8G8ZReZ/kEn4t45N/RIe5+Z7QUIWIrD4t+/9LIHFvotwyn96HWfJ9lwlHXyAvAlNFCeaZQ+J455Ojb0UmdzWG6bnlsOXU/NhdG4BttFdmwTH8+F1xzjuuR33uAQY+yQnYMgKXAzJVdt0UupnULn9TvagwvveG022oDli/oWREc0K93HzvZvgkNr5lYB1OqdwUK5SFOc6fgfrY+ikrIcyCxpv93dTL3Q+fPmjFb8Ww1DvPJEY1siJk93Or1wOOrMEGAdIxRsl8zEIArIGAcLPfb+3yRAECxmHm/sIOLIG37uldn4lIOiXMStNEXfm6s3e7romWZlROsS8kiHyO5o6Wqi1sRh6JqbDH9+6vrvy2sUKsSaj+QX3sgAhM1D59wJGBgzZa7aPrxmo+Or32d8vGCJ9fA4kUNashDGuU7KvCtUwhduiOdkENZO53ASW4zQfF5YAHKRIz0fDQ6FAP1MzTFLDwWqZwOP2e5xzqccxCTDqIcXUx4WVgAq7RUTEZQSsouV09cx/IURsAyYbfOearALHcZoh1CudreGPb9+IBXYWiMR8T3k/Z8kKWBepJcC4SFcrnWvdJaD/Ypt/1FvZgMotu7DJOGapl2G5vsV1yvAZaj2mgusX+dVVMoBhGsuA0N9+fhxLAcbw7TH7jCd5yv8kwDhlgafhzpkEfMDvbuptZn7IKJZwXH/DMop/vfc4/EiK9xyLOR8XMGQt1gW9NdgTuqm7MUXE5Amp6NYE3RGwzplYXnQ6z3rwXrRX+jxJ4JJKQDLhzFSd07INWUSZN5ohk6xB8vnIWBhBuZdYCc0qW/3MMcmBLEd1Zkfmgl/rXbJIp6iX8Yip74+nFsJI/yLrn7DObm7XsX7O5ZwYxjm/QOn0TlYCRjEamTdi9XD9CRa+sabFImziGwr8zsyvhkVCrt+RdKVpsr1DzZJjnpIgM8zEtrfIy2hqbQwPqJnx5ePxuBrbGmMarTlu38c8pSMflgDjyCJLB1wmCcTkKp78rSyTmAM8rImx6tqqAMd9pqZbVGcbZZ4FLKZYKtEEL8Ovx3U7WDj4BjkY794ciubNPSan/fvPj8LXrJPi5DergGUs5zyCRwKMy3T3p99yZAkIGEWStFxKoAHgUGkXAAlXbnf+x+bOVqzAVQU0XCbxEdXBNVeO68tw3sq13o7wpw9uh35yeGYxT/7nN/fCX+4+jOu3jtH/AuzGyuWVc+jbSD6MI99i6YDLJgGnl92kXN807OIbZpSOwyRK5NIsEyFpYmW0XiaLtfG6wNP/s4dj4TrzQ8ytaGSa+nFaNxGT38EwsEHCt2Ot4SFp4w8nZsME1cs/ZT3XO1f7wq9YWf4mWacu73ieFkZKFbeOc8XTMZdPAvB/55KMoLSFIiX7llfDQ3wY3SjwzSvd4f1rAzz5qZrGgsw6KV1BrQXfh36JWhD28CJxXRQdqCaIudizyx20mSwGSG1VzPsoRyer52O0RgbkdzGZjPHOsiWGcZbST2OfCwmoiM4qXcQMuTvZTeWtxeiz2MA0aEeR3+rrCb+/dRW/hmHWyfAdSVfWtOhmZmtD6ejp/6q8QGO9DDebY09SM+PHqdnwLTU5viCK8h3LFVh05zc3WOOX/Vw42vDsWbbEMM5S+mnscyMBH9wWvenCl+HqZS5L5bSAj29fRWkHSO1uxUyh1icKO4nJYt1OFz5qhmVY3Pd1n/uuuNYM63A9FNd67YfZ6CuZo5r5KH4NMzWsZO6aKUZ2jhrWrZegE8OolyRTPxdaArKMDhjD+0N95GNUqPVZU1irb7mCmYo6THRDRV2DDRjJmCDpqpWnvsqu2fA6TT9FqdAQfRb6OIymONbPVB7XPPqauqAbW6Sos+jzVRZNkuF4zqfdEmCctsTTeOdWApnSWuPTKIiJXC5ilCmmmZqaBD7hzckYJ2oyACNw1fbXBYy9QrEvmcafmNHaA3B8Qa7GV/fHwvT8SjBfw0WTGrs4DxjRabcEGKct8TTeuZeAAFFlywMY+x/iKqv+BKtprZCv4Upn64RAa0sTHN9U2ISxrFOPQ0fnHOUd5/GfxJXZMEk2YRZFxp3n/dcPRsNtxu8ESDqbE2Cc+5spneCbIYFI9g9g/C5NoO9Cf4eAsUVEw/knO0Q3TO8+6gJImTRreR/LYYRCO4Z3F6jPsU5WaearaAcgtgEU/3buyXFnzmbjHfc1MYzjSi4d90ZLQB+CSVjrmAimdG/jKC1CSWqs5ACkeYW0Zkg//+rJRPjLt/fDIqZOFT9KE47PTkwT2UQ/odwetkHWUbmCf0Xz6SxaAoyzkHoa88JLQEhwQlkTFdiyrM9XLdr8sh+t38L1SjYxSSwr3QFY/P7OzVgBTH+G0ZgWzJIWSj7qnHWR6LNoZzPqWfzSNGaSQJ0loHlQ2rVBBI3MfDjOMGaS9gMMve1tMYTaQNi2u7WFCE07Wag1n4khXUHqLFsCjLOUfhr70kjgdcBCIQgW71NgZ4pFoT/7+QlFgxfC/737KCaLmY+ho9X5LgVYxlk2pvYDjaklCSQJnLkEjJKMEq7958OJmFE6RoJYMwAx1NUa3iN5zOUKXCxa8+Q4i0XX4weeLVzV4xekPt5ACfCMe+45B1WvB12P/e4+Q33/tE/7V9QnZxKYHPbOAFXqicQ0U1v003tPWGJxKdwfn40REzNQNUlMY29jLos+k9NuCTBOW+InON5+svi6NNlT3d+nn9WjX/s5XhMscAtW9kwxJ9OSYhaoMnkJTxX8GL3Tb5XwKLW3YpTCmp7WyMjZf2BzdupR+98PbIc43sxSIyO3mEH73fhM+J5JcBMW74F5rBHK/c+5G+E63wkap90SYJy2xOs4nspsPH6LeP06SzWuk+CTKbhKXWLWZTPOM2dG+vdhnkf2p80cN4veWpOBz1QcIwImLjVBiU1uOkx/dfm5VWZ2ABCVnc1Q3VlnWvh6qGyvh2p5O3afK3Ab5ymAU6TUXbExhCJp1Xl+M+uX8s/LTwGAqFa2Y7/VnQ36XaN/aneWGYsxQ461ZkjZzhVYZ6bYyuJDlOhjnNqYL1IfQE1A4xwrWyuML1OpgVq+sTP29TLgMWTqRLOia5nAOgaZXv94bpF5JbWErvvkakgublG9y32zTNSX/9D6fJt8GPWR45n0YoGVLbIMZ5hybaWoqRi/5+akeRM5z8Hy9rdZeUuae5gby/J0k8yRmKQ/Mwuz6lIe341jboDFeLyBzWw8FY89YBEVb3MRnJgJlfW5UF1fjIpYFUD4rbmiYNEU8o2sTtfcHfJNPWy8NrTzOQByILSp1CRdba/S53yobNj3QqgyTmWTz7Yt+AsgkYyVKwA+pZZQbO4M+ZZexhigf1Yua2jj+wNYB0xFoCivjoXywkiNEclOAJ1Sz3uh0NLPBXoR2HC6+5o5HrNcCwsR/zQ5A2iXohP0g6EBgKW2LMK+Q07sz8Of9YmdQur4uBKwVsIycfufKCX3xYPH4bv7o9zkNfWwfkI3nvWPWT28h/BcLXbPTfuSJrtYoT9p8FcPR8N9pleXZRl8XoJd3MLx9mv6a+Um7cwx6QrQONkGu+EpvbMyGrZnfwzlubuhvDgaKisoNcBWsb7mLvtx2cF8cykUO66EQvcwivkByQzDodB65QClpl/rZwIOO8uPw87sD/T9U6gsT4adVcBCpmbf7BNNEp7iOX5rkQpZhY6BUOhF6XvuhFLnMKDRARDsWwoTwCgDQtsTX4StB/8r5JgwVmWfSiN1ND5g0W3ALLKfQwpPsHaBpd/eHGSqfXe4Pz0Xq3EJ6o3FzlOd8p4A45AX7TzupoLrWZ9gNuMYq2lNAhx8FJs3+ipmSjssYwRH2ttsjcXml/4M2YS1LO/NzIURQGOMJf0qfOZjvIRCFgCKQcrLrVJ5yoIvaMpL+3utL8tbKC4l+Oe+D9szP4atqZ9CdXkqVLeWOZ8tntCYHSXMBJ7ckCkmhJlliWmxNokybYftHOdXknH0QgI0S34xoGQQ5dVJQOI7+r/P6+NQWZsJQXMnh/mFCQIa8la/CGZJhRXKPAY2Ul1fAWSWQnGJcfrGQsPAJ4zRz7ko22wM2csmjGUJhjGzCxiFUOFaRBNFH0yNGx1KRP4+TY8iDMWoic0SfqanO+X9NFsCjNOUdp3HMiXZG2cBurpisVrAo4qC1566+bBSWGXV8MXIQAbIHOzmKfWy28slAwWMJ7NLsYDMJiXq9GF4kE/bJeY3LDEpSpBy0tVJNn0UOyvjYWvsH2F7/BtAYyKee07gYl2PfDvMgSd19FeofIBEobwWWQMHxid8EQXnxJ89TUyc8tp02J7+JuyM/r9QnnkUyuQ+5GBQ+eZmGApT2PEzhFIrvQIY+Euqmyj+0ixgtA7DWQgVFuiuLI2HCiZHHhAu9nJOmj7RX1KTsI5TVu3mWPwvikqWobbp2+C/l12HZ0/4l788RpC4gcPTFdm8XpqGp9kSYJymtOs8VlwXFJNhDQWOS/15Yz7VYxYZhlovUeX64fRC+PjalUhjXxaKc8bkMlWlVpjXsIVpUmt2yOxNAEIGsslkqw32039yYo2xKhvzPP0xFeZHMEHmQ87xGpnS3UnYcejjUOi6jbkxWHuyCwowEp2hVXwcPt1DC+uYtl+L/oenT37AooLy78z/FLZG/xoqs2OAAKDI78t39IV8761Q6nsv+ilyDQCGAKDjcmMu5BcxXSa+D+XZUddPrIEHILbV8gWghbO1ua82lnRgt4mpEW8juP7yefb967zWfFKW7qtvv686pwQYr5LQOf5ek2SbJ/8aym1BFxUjR6pyjF9w41Zw6q2iEGPE8uec/YjdHyMm+36Tqi8gaGoswCrWeOLusG8O29n7P97v7KM/YxtGEytaZx/u66s+f+o0xL+w8AD6P89TGjDgJPMtXfgPbofSld8ABtcxkWAYmg+ei85RTIewQ5QDthGKbSGH0xOBsO0qFU/3nSUUf+4eiv84VGFmtjy+ieLAu/QLEHW/Q5ccC2OIPMAIig7MNor2Mo6RmeqsphqmytpK2J76GbBhJfaed/Fpwkx2/RnK1Cab8P96q7VRr+POjK2d2fH+TYBxPLmdi6PUEz3ohlQFjFrOADY9Tx1zB8oo9wbKNodzzNmQcfUuQqJPFWj3V0T2oMlBJak5wGLdpy5/F92XMSpS693XbZ6uMhHByuN8glqhyr997wPPaEye8X3NdHWvwGr7sj8H+N6mArh/nMBl9EImsAzt3+Rc+I25Kt+19uHMfJvtTs1xSGTk8I2xWDJgG7DYmRsBLAh3YibkmmEHXX2hYfDjUBr4DaCEP0JmsffE8YMU2q+yP1GZLRZQXl4M0Cz6Y6LYwkQoLDyJLCSGdQnnXuaWAOMCX12VbQdl3sb0qKDgVmAqNREpwCGpo2+dorI6LbcxM6YWl1jHc4Xp0a3PPe3sxxyOacwXw7NGX0o4OIvkb+jD2OL4bdhHBaDYAYQEJ48ROJb4fAqn6xL7mLuhU86IjFOwLZFvOf79Tabj2huGb43K6ItpY6w+liG8gq+lIS9b4EluaNM8iYgp/KOfoIBzkZCkAHOkRn+VLUBoAXaBw7IqWNCBYdjSlV8T/biB76LjebBwEMYyr6PQcQt/xWzYGv+WvmAnRFIKOwDn2gLM5REg1oOT4SggdqRfcC52fv5qnovTSidxGAn4hN7hpt2BYQgM2rMNeOLbqJvQ3NgYJlhxfGNX2V3PUwVVOXMAy151sx/9IFOwkMlFIgGYIq1kGraRdyEILAs6AobgBEhEwBBI+NtCL3epO/kE5+oy+SBNRlK62sOHTKRyluVBgCGTecjkqm/HpsI8xzh+HwBzZ7C3lrAUH9J7zzASnRhirW5TEJdoRkW/AclazzCBlwgtJn1tzOKonA7VDepNMKacPtfcHs2QnLkbmjcHAhHnwuf5JphG5zVMmA4iIJg+5IFEWrWxDOsgpN3zPidaY0wvOZUL/VUCjAt6+TQHVH4dkWWdcDyJNUUaUdjujnae8O1hiYxAzYttnuJTsI0JJjOp5JoLe52fMooVlFgGYsFZcw7so6+nnb/Xw0a09XmSsp9mjsxCh6tje5x5AT8+ngpzgIAM5zqTpFyzwzL8WTHbvWJexE9yj2M+p07lHP4VHZpDgIX5Hc6laIWV5GURMArDphm6VdZmiVJA/3smoQZ8h4LHjMtsh72D7HtfJWJSNnRKWJS1D+O3FQCj2oj/AudonhAsne076tk/8yRvCRqhFXBZXgg5VneX6RjqrWA+mSlag7Znj7tMfxmgTu0CSsDnWFRagEIzISYZcfM2UWClF2p/A2VvpZScIKIDcwFzYwaGMb9KxWtAI2v2oRNz3pAp8xU22K8ES+khm/MqTKFd0wTG4RO5LJuJDAMTCLCw6EsHY7Qypqq2RUh2nTEWKIs/ypKD87Ib9tv/0F2Fzcgs1kl1NnS7DeiUALEGQpuOFXMrGnnytxPpoNR/3jwKOtHvYBh088nfws7MtzzViXKopDg8X9XM6aisToUcfgdvetlYvoHksyZAgIiI2ZwHs4s9PSNfQapARKQAeOgU9rdpnpQ3FngDEO3/sXsOvwxvE8O4gFdRsIgMA2XUPDB6Ia13fQznenS2NsX07VaAo4RvoIwvYAOlnIctuAygT/8sAUiWYuFZzZVFwKKCMrf1dof+rjb6aIeVrDxlI5lJIsBEPwemTSeA4UQpS9ZZVm57cyesAgQuyjNvxIWneQcKj6pFSatPmj+LsJZNzJwd3ueZ89LaWIwRHPMK8iZjNXSFYtdbIbcywT6cl9EP+iovkZyW+z6aAxWe7KXtt2ohTSIieZ2ge6Mie66tZozZlwijhgsqv4lfDc4Lqc212bP7i9/CfEwLr+KrwA8boyBVQCgASFVCu8og9wqm8uLOz/83CTDO/zV6/gzROp2OJu+YFyGDqD3xcXqicGZ3upxfOyyhAWXeWNlA6fBFAAiPZhejY9GS+bZtWIMrej2BFWgqWJNSM0LnYx8+DCecOWdEgJLFyDCcb2LRWz93kpT7mhRmZestIhEbgIbzWwzlruBHcValERCBLnOwmu8RE81iPy4g1ERxXUrPlQAM2EauuSeU+j9g/ULCn2RMVmAvOirDBlEKnuhVnugFEqfC2lTIGwrFIZkjDTzOHWH+x/4W/R4bi/wGwqE0IyF5lD6CTORHz/pM9h+f/W1Kd6GED2M3QiMAgmY1B60hVz44XE9Zjxfr9XnJXqzzfyPP1nvUG9WnvOaFT34/QCejmeDkJCclDWFSTFLybYnELX0PKzz5H+LXePdKT7hW7YgKXzNHNiKQWAW7AaYg2Dh3QXOkVEKxYC42IzFlxrIugwvqqByuEyrA9DLJzaK1mi2ejyxDE0jQcAKczf0FuRVs/yUAwHPynEuM2ckaowKLiyD7mYpcJDGrOvBbtBtzoUgS17ITxJxNyhiAW9gZD5trqyFPWLPQfSOUu97GjLkR5484qzROR8/UF2CK5gu/ISKX56NJAXAcpQk0MhP7jiDqwbC7HOcEGvkjj9Ldhds3AcaFu2S1E64xDE2SWtXq+GRD0ywk68I61og0WtEDS3iIva4Smz7usnuueSFLMIJh0pf+hFmiKH5mKLQPwPCJr9niwj1PHaQogyaMpfX1TaAn+B5yUdl7qWbdzrZFX1sAzxomxzwOVGe8uq++iTIHrMF0dJS6epghYUPBjYzVQVq2a33EZQdFDMyEfK4jFLvfxVew6wB13scCczhImKJaLuCBGRD9B84MxSG6Mh1KvYAKjKPYdhVzo2PXTKE//RwyAZWaxif8A1jELf7lJ69u8dyIpuiM3W1ihPKvgUUCjEwu6fUcSaDm8LS8PT4MqTo3rB57HZE6D/UpaCr0tjdHpdxBydcxAyZxbM5imrhIjkCwjOItkKy1wudGWxo7GzFFyKEAcBpUZk0Sw7Ds6xgquazEcU3YYsTox7AMfi/jLZfmsRrwTwAUi4RpnZZtVEXgcX/BYpVtwzAtbKQEWDQBaq670bxrutTEzHgopbNNc8zryDmlvHUo7LTeDZW5n8P2IingzCzlRPC7GKUg52QJJyjzT4qYKQFmUmQ2aWgdABRkAzpfZWKvexE5rwxkBA8BKMOK1+36AhyfGMYFuEj7T9GH2S8MQ4fn7lOTp3gEDEDDSUqu0dmFEjfz5F/naa+fYwt2MY0jU2emMyBruRcrkRXo9W/ESdqDs1RzRFCKMyLZTzDSsepYgoXmkDjlo1pw0ixxPdIp/BDLjgWoLDoW783VcA0Pz1kAWQG4ohnF4YJEL8e1MV4D4zzXUE4neIU25o1Q9yLf0hfKzhGZH4FtkPsAqwAJMTdgD+uwrVlmtG7gHF1nweQhZrbmSMoiOUunq85IVzR72vgdnAh/HgVFRIdd08MLYX+cd948beQX/346wOV7kwDjQl5TFbeWB6EPI9LhqBA1H4Z+BdlDG8rbgw+ji5JvZcyETR2NOCGniZRYbFYlNzoyQUTDnArBohVfgp+38N6MzCLAo5lgGFLd0qxwTM2MmASG/GQhRkuu4GQdwfcxC4BsrjGJDaCYhWW4ArkmjugyA7tZ4TsjOzbPsZ/jov+CsQ5smidGMvBr5BuZT9JK+nYLjKPtATNH74WAmWK6dnWDiln4NCqwpjyVs/IFwsrWnjBD1AZgxLwJ3kaZWbHrqKFQQcKJbgjDvnJOh0c+uSJ+FhhRTCuPg13OfxJgXMDr6vNQxfVJb5QjtnjzOhcDsPA9H/rkly0MUcNijUzMDZ74ZoVOAxZP5hbCNXwchlktxKJx0YwZ0oV5YG6Fpf0EBZ2QNZNEZYDW06/gEn0YnINNcDLpagjFbwegSk2LMBn9FMxjATCm2QZJBCsSPjWNfJnz0ByxtQMYQ4RvZTQHMoy4V+2f6MtwQpl5E42sst5xM+xodkx9HcL0jxTCIXkKYKwCdLmlRabE34fC4NwFXGKDoURzgj88cyt2Ob9k96+4y6v+0ayxqE8EGnaWE1WtndFgzssRwrOvGuicfp8A45xemFedFjGKCBqGN735a087lbs2gYsPohnQTU7GTSpvjT+eDMz7xE9Bkhas4onhVRR8htd1nvqCguaLFambYRcxsQnU0cSJTk/6s08xwrU9NUl2pOa7TZbRz/Eu59cKCKyx7zbKu0rfmiWuHapZYhnBCBiAnWtstANO+j9aSWUX7F7ZPA/CoLUoyABRHGtssjHDtFr+NBassW5FnIOyOsf0eFjIVUwT/SGU8NvZZTGGiKuAhcof563AHOz5lQ3HaXmTUn7ktij4KHfDsw3W6gSQDtfLK4c5rzskwDivV+Yl5xVZMTf8Jkq3yZP6F8AwSlIzH7z59T90EX243t0ZvsVUyKPUOyix+Rjj0/PhBxK4pmYXYqZlEYU1Wes6gKFi12aa1vrLIhfqqlTekGp0tu4yDE/VyIyK308I1fVA52ATgpOAMQVA6bswYWya96tEa+goNMN+uti/jxKCJpwdCjAyuZhAxWahmxymh4BQWWFSGeYIE2iiMleYMxJWrNJFKFazxunwHKO8NOmqsC2/c2ZsrbCvRXBeAhs6TmUlFOCpbNKnF4Jmbc+CPhbPQ4doHCF+den+SYBxIS+pCluJE8MMU+pM9MFmJKPGCGpPat/rTNRU6AQ0mjBLzLUwgjGFMi8TWVgnn0FfRDOOxyuAxTA1I41oqDaChiXg9ImYnq19LkZEU0gfBlvWPKaHlbmudXWER5g6o5g3GwBDLTKzEn0mlvWT3axjqsSao0xO62dMfSZxzJfoajbOQa95ZpkW266Hnb4PcILCKsjXKG+r3GzIxxoW7pNvGYzAobzccuxjaHaHiWPWznCuCMhx0BC1z+KMV+p0OJ8lJoHVWIlO1VLPO/RBvkkNVV/cxwX/5hAc8IL/wkt4+uKDfgRnkq7H6eG1J533aubD8Gerf4ZGu3RIdreFbkwGmw7HTUyEZXwX2/RhgV9ZQR/fa8IU4lPSPXd9IrAWwSjqAk9PAUaTJAKVu9Gk5gJUD8cb9WiEPRRkNLAgoyWjgNVj/CbrgIjRGjNSNX+uEMHR/xHNnlpXR//X840Ox5rvpvbL6ca7ezd6IQvIt+HLYO5IlfOKpgRiq64BADPf4TAl5Xw3C/RFJ1AmXLtDdCasYuIgN+WBgEOuDUes0+ON5sRBX9TDxf/8JXB68X/cZf0F+i98yls4x4VtsrCqiiIrcMuaodOYxIVjUUAY5TsVPlbcRnELODcbNUf43uxOk6f0X9j8V0X2byMBakg0STjePtyy5r4qodGSPkCgDeens1xNSV8h7GnCWBN9OKdFyt7EmNeYIKcZY4LY3nOOfaK8FaMR+kkAhGh+aILE3/bL74v03zkcVMWqOH09+hZ2/RElwrAAhHNF8pgutjwzTXNNkyFHRS+Bt7pBjYyZn8gSfYd9e+LEMsHHMWuNnfATeS7b8/dxpP7AMeu1koGCVBvMxEriFN55Oj2+ht+7xx/wEgdmp70/45nddr9wv9h85bP48d6Ddj/f3es0XhJgnIaU6zxGZBgo6wYTt9apSKXiqqzeUCpefL87pozDaMkgSqx/ocBcDROotC3sR79GG6zgRh+L/QIY0V+x53x9Zsd5FwIGLd7rAI3myF6GkR1i8RwzRWUZK/hHloiWOCN1ojIXz8v6HGZ3tnI+g50d0YzR1+I4e1tlczkWAa4y6SzO93AtDzI345T3CBruzQ/gt+ww7X2b8GoZZd5ZoVivQOg+REiKHUxdN7JiSBYQKHRTsYsaoVXL65n0pb9jZjRstX0JOpKn0U/eBjNla6HY3Tk0TI3fWXxE4ZzPKEj8Vc1PgvxygGNh4EMmyb1NchnT4wW0l7R4XXYzTmPmqbPX9rUIARGs+C4mmgnKu8Dg59nmNYxgKrg938++buv258t/Yd2GSR3VUwIZw9iGYdQmcAEYu0qnwu99WksWNBW6za+AYTSzVfAj6Pz0Riy4Ohq+h+v4E2QHe28970NNkZiUFL/hAxAjYxk6Dve3GMrFJzEAaExhaiwt5eK0950tx4PJM24PY13t74pFc/Sx1EAu64k+eaKX1yiwO/53HJg1oMnhJ8hRi8J072BkxPPxyU++RZm1RSwWvE1YVYenipnDVCh0XQlF/BquHSJDcd5IqfcOJgVVw5kaXyCN3QSzCqxnh9qc5lfs4DgtkBwWFyniGKuXu3hSefFB2J6EiayshLwA3UIdjZ5rlPb7iHoamCOxNN8z0st+UHw1KkMCCzVAvwcHmABnLY+9e/CHwFxlzBKzdAuktvvbKusU/NEpy2+PJhMFjvON3TAqFnZiJm+JZQ7iwkh7+zrB9wkwTlC4J9V1ZBg8RfU/lGEZKnFUbv6phUN/uRVVHjCBPIemCBgdOD8tqKOpYNKRE79kGFdxVpoTsb89ZSwqoYPQvPk1gyJT2XeAEZZO+umHYViPQ2ep4BQTpeK+OXI9WsPNgW7qdtSiI7vdPu1JxYhVw2ENueUnMYRZdalCQcPwJeFRAaOCM1MmEqMjlMmrrNVqXRSoz5Fj/GLvMADxPqYGxXlRROfLljpvh2rvFCDzkDqhk0RRSFoDeMsLRFNUzIWHmC0AkyyDil72X2VafJlaGhVqiaj0IBwOVPI7+m7SP6aM7Cc++X+R++5P3ZUZICshYMmB7Ukqj1OIOC5h8PQX14CZiweokQB2+7/GKfuuyiazqbCQU4E5NfG3rk/FAshW+Noh98TK6Akw9ggyvX1eAgKGM0a3mEZu6Tz/hmJwc2o2qNj7juGDZitgYXIM8nRfpwzfJhmfsocW2EA3bKCP71rwJRzUBArzNDQlVIyYZQpgmI+xvxn9sIiP81HacHxaF1RWoaPT8RqaG8JAd3u4TTSmG2ajU3Z/iyYQZoSVsMrr+CWoklVdJbJCfkUoME8EUIojcw45HLh52ItP7Yq56qx+FrpYiuDa7zEXflubiwLYRIVWTXF+FimlF1lS8T9CJXcfkGCtUkEXppEzquLkNh2jgB3z+WOkJbeNvHZD2DG93OQxpuCDLLW+nxG6Z0fJRK6DPqQyaOF4XpYcq7bh3DnQNcpeVIEH4PunQiPHFBij7LqxRGdkMFUYh07XClP7y0s4YEmNlwGdZjv4DjnNM0hjHVkC3ps+ydtQdtO+VeBG5mR0wxK6yGkwiWpv80Z1Zmo/SnxnqC8W9S0AIN7M15jqfru/J6Zoa7rsbbILZ6/qjxjo6wqrMAdrXnTxt7NLPYf9zbHM2JRlNMMwihyPDRAVxklxfRTnudqPSUKoVxA7MDoCKLliWWngI3wJmCxx0SAqWm0DHBTCqbruiBENfreqmcOsyRU6+D0t1NzsBxBuhUL/R3Gqey1Ump0nZwfTkBGUZAlkrgYcnaH1UcjDJFyioFZmj/wMzJMKyhuZAH4fJ8BZkyMChz+asGrFCuQ4VKtknDoxznkuMYlM0KaEYJ61WAtUJCdUxAHxTGtgzmlkbM2uaq3GOfKstva0EJBlCC1MzDnGKA9MKQ9IRT8OYBKZUEwWy/o4+ddn76yTHy+NUAcJqGQq8iCre791c6iW1s2TPDIIFNGsyf1N5dYZ+auh/jh7tI39zH24DRBYR1Pfw17fh8ebBNaF7+MGSr7B03sRNiMY6A9xQeaWCAb7R0InZRkoWQPgUmQMAU4FMTJyndqd1/t6ojkiu3hecdwZ/4NLHBKmLLAeSIVwphS8supqY0xfN9OS0nyxjqnggvkQF0emfkbBmhiki0vTY5gTgHi2ARTW5iww/d0M0Tacoh0PYDCYCZgdZRZQihW0NIs40NXgowMUlpJfZMUzGELeCluaKZNEZvAj5LuGMX/er1Ufd3GluDg0Y1hicJDp+bCfOK2en/aiFr/it+SC68MOIALnpgCojb3Yk8xbYc2T+EuibSNTAowIE/vbT7Ptl+Zpjp3GOqYErHlhlW0X57Uyt88u2YHZklbJsnjO/iYY+PkwAGHGpQlcmhmdJFiZeyE47G86UDUtHO8qWaBOU7cfszqtsyGLOKjp39ggAuFqbFboAgEoFdgQOgCZ96/1hxuwoliFS85+UBNhoOA+VXMqKsoSnYD4GCzmG8HCUCrKE80wHYiAQMEoiquqs390QhoePajF/lVGlkXET1HgCV7ZfKcWmoX2M4COmhop0CSIc0QKJHgBKPoUXBR6mQWRVzZDYZs6HBT1KROpKTCVvsD4LocQk8ni+ikdkV3Fi3TQuez5LAZNAMsibCUu1sx7mZZO3hgWto4oQOGJ1QATM02GdIotAcYpCrteQ6m05ksUyajUcWiLfgY+lzUcpPwe43edgIBl8Ez88hgZg2HNLPdi7zl6TDPjxBRzfBwxfMsO7itjKRygkCaTOTv1EYlaC65xAjA5TivneaW/G/OHeqGAnYlbz7OLPaPztEVr2EdfQgM1NAEPlSM+rWsKHf0C9B3306mJ8vt0V8Ff2TyOfq0fWjXkStp4XNVMU0duER1DvN09D96Q+EXkgtXhy+3d5G48wlE6TuVwwrgs2EzuKOMCUHF/TBL7dvlEQO8wYPH0fDmvaJJE2cqGYEH0FfsOzLeJyWGenueIn4RzP82WAOM0pV2nsbzXi9yYxQaK56LQh20CgCHSkjfgIZrj6OdwM4dxfzMPI85a5VXlVcecvj5C/sUPrDkyA2i4iJLO0h6iMzcG+8K17q5YB9RzOVRzP0FDQAgnoBw6iwEvnBn0//JWwIdQhUVUOvGRdD4ANIh4TH1BKBSzpetWBB0ZkeCiOVGrFPaa57zbz9Mz2wXDV53r0/3r/CYBRp0F+qZ0J9uIq57BIlyGUf+GJsvo/GIYpYbo6PhUnORWQBnbMZvevXklfHz9SjRjDmJAF0JuEVwwD1DaIpuspExiWDRZcHhGv4m+h0vcEmBc4ot7Uj9Nn4nswnqddydmw4PJ2Vjw13T1GUK2S67PyncWFO4m5fz2jcHwIWAxzDR7/ScHmT8nda517XfXPJE5FPI4ZYmcRB8Cn+tAdX2TaJLUddDz1VkCjPN1PS7M2QgYLk/wMyuYff9gLMzALGJug4lkhDsNv3bDLN65cSX86e2b4S0yOwfIMpVdnBWdrqtwZRgAYjXOUcFnYeeHNbPqeiKn21kCjNOV96UZzXkZRkluEyKdml8Jrma2RqEcC/p2MU/kNuHT2yyZOIyT8xaRGfc1kvNSR+cFlE7t91wKCDyU9BNgHEpMaae9ElA9dFq64pl5HFbTMky6RDWtJkK0AyLewJ0AAAEzSURBVMxCvTPYH64TxbEwsDkjgsWhHZ17Bzv3798csPBS5KCRmqSpJQkcSQLR/Ij5FhWWLbAy+AZLFmzFBDDzPQz3GsGJSx++AVT9SMK7wDsnwLjAF++sT10/RqwiTnTESuIW1THZy8LBtTwNWAU5G2/WM/isr8rJjp8A42Tlm3pPErhUEng+H/hS/bz0Y5IEkgTqKYEEGPWUZuorSeCSSyABxiW/wOnnJQnUUwIJMOopzdRXksAll0ACjEt+gdPPSxKopwQSYNRTmqmvJIFLLoEEGJf8AqeflyRQTwkkwKinNFNfSQKXXAIJMC75BU4/L0mgnhJIgFFPaaa+kgQuuQQSYFzyC5x+XpJAPSWQAKOe0kx9JQlccgkkwLjkFzj9vCSBekogAUY9pZn6ShK45BL4/8w3t0B3FwDMAAAAAElFTkSuQmCC;" vertex="1" parent="WIyWlLk6GJQsqaUBKTNV-1">
          <mxGeometry x="455.87" y="185.88" width="98" height="54.12" as="geometry" />
        </mxCell>
        <mxCell id="Fvf0qzC7fpE67HuZ9lT4-51" value="&lt;b&gt;&lt;font style=&quot;font-size: 14px;&quot;&gt;Prod Server&lt;/font&gt;&lt;/b&gt;" style="text;html=1;align=center;verticalAlign=middle;whiteSpace=wrap;rounded=0;" vertex="1" parent="WIyWlLk6GJQsqaUBKTNV-1">
          <mxGeometry x="261.88" y="253.97" width="101.25" height="30" as="geometry" />
        </mxCell>
        <mxCell id="Fvf0qzC7fpE67HuZ9lT4-52" value="&lt;b&gt;&lt;font style=&quot;font-size: 14px;&quot;&gt;Dev Server&lt;/font&gt;&lt;/b&gt;" style="text;html=1;align=center;verticalAlign=middle;whiteSpace=wrap;rounded=0;" vertex="1" parent="WIyWlLk6GJQsqaUBKTNV-1">
          <mxGeometry x="261.88" y="30.00000000000003" width="101.25" height="30" as="geometry" />
        </mxCell>
        <mxCell id="Fvf0qzC7fpE67HuZ9lT4-53" value="&lt;b&gt;&lt;font style=&quot;font-size: 14px;&quot;&gt;Prod DB Server&lt;/font&gt;&lt;/b&gt;" style="text;html=1;align=center;verticalAlign=middle;whiteSpace=wrap;rounded=0;" vertex="1" parent="WIyWlLk6GJQsqaUBKTNV-1">
          <mxGeometry x="638.25" y="255" width="120" height="30" as="geometry" />
        </mxCell>
      </root>
    </mxGraphModel>
  </diagram>
</mxfile>
